<?xml version="1.0" encoding="UTF-8"?>
<!DOCTYPE svg PUBLIC "-//W3C//DTD SVG 1.1//EN" "http://www.w3.org/Graphics/SVG/1.1/DTD/svg11.dtd">
<!-- Creator: CorelDRAW X8 -->
<svg xmlns="http://www.w3.org/2000/svg" xml:space="preserve" width="1033px" height="1033px" version="1.1" style="shape-rendering:geometricPrecision; text-rendering:geometricPrecision; image-rendering:optimizeQuality; fill-rule:evenodd; clip-rule:evenodd"
viewBox="0 0 1033 1033"
 xmlns:xlink="http://www.w3.org/1999/xlink">
 <defs>
  <style type="text/css">
   <![CDATA[
    .fil0 {fill:white;fill-opacity:0.501961}
   ]]>
  </style>
 </defs>
 <g id="Capa_x0020_1">
  <metadata id="CorelCorpID_0Corel-Layer"/>
  <path class="fil0" d="M516 970c-61,0 -120,-12 -176,-36 -17,-7 -33,-15 -49,-24l-12 21c16,10 34,19 51,26 59,25 121,38 186,38l0 -25zm494 -453l-14 0c0,0 1,0 1,0 0,-1 -1,-1 -1,-1l0 -1 14 0c0,0 0,1 0,2l0 0zm-14 2l14 0c0,1 0,2 0,3l-14 -1c0,0 0,-1 0,-2zm0 4l14 0c0,1 0,2 0,2l-14 0 0 -2zm0 4l14 0c0,1 0,2 0,3l-14 0c0,-1 0,-2 0,-3zm0 5l14 0 -1 2 -13 0c0,-1 0,-2 0,-2zm0 3l13 1c0,1 0,2 0,3l-13 -1c0,-1 0,-2 0,-3zm0 5l13 0c0,1 0,2 0,3l-13 -1 0 -2zm0 4l13 0c0,1 0,2 0,3l-13 -1c0,-1 0,-1 0,-2zm-1 4l14 1 0 2 -14 -1 0 -2zm0 4l13 1c0,1 0,2 0,3l-13 -1c0,-1 0,-2 0,-3zm0 4l13 2c0,0 0,1 0,2l-13 -2 0 -2zm-1 4l14 1c0,1 0,2 0,3l-14 -1c0,-1 0,-2 0,-3zm0 5l13 1c0,1 0,1 0,2l-13 -1c0,-1 0,-2 0,-2zm0 3l13 2c0,1 0,2 0,3l-14 -2c0,-1 1,-2 1,-3zm-1 5l13 2c0,0 0,1 0,2l-13 -2 0 -2zm0 4l13 1c0,1 0,2 0,3l-14 -1c0,-1 1,-2 1,-3zm-1 4l13 2c0,1 0,1 0,2l-13 -2c0,0 0,-1 0,-2zm0 4l13 2c0,1 0,2 -1,3l-13 -2c0,-1 0,-2 1,-3zm-1 4l13 2 0 2 -13 -2c0,0 0,-1 0,-2zm-1 4l14 2c-1,1 -1,2 -1,3l-13 -2c0,-1 0,-2 0,-3zm0 5l13 2c0,1 0,1 -1,2l-13 -2c0,-1 1,-2 1,-2zm-1 3l13 3c0,1 0,2 0,3l-14 -3c1,-1 1,-2 1,-3zm-1 5l13 2 0 2 -13 -2 0 -2zm-1 4l14 2c-1,1 -1,2 -1,3l-13 -3c0,-1 0,-2 0,-2zm0 4l13 3c-1,0 -1,1 -1,2l-13 -3c0,-1 0,-1 1,-2zm-1 4l13 2c0,1 -1,2 -1,3l-13 -3c0,-1 1,-1 1,-2zm-1 4l13 3c0,1 0,1 -1,2l-13 -3c0,-1 1,-1 1,-2zm-1 4l13 3c0,1 0,2 -1,2l-13 -3c1,0 1,-1 1,-2zm-1 4l13 3c0,1 0,2 -1,2l-13 -3 1 -2zm-1 4l13 3c0,1 -1,2 -1,3l-13 -3c1,-1 1,-2 1,-3zm-1 4l13 4 -1 2 -13 -4c1,0 1,-1 1,-2zm-1 4l13 3c0,1 -1,2 -1,3l-13 -4c0,0 1,-1 1,-2zm-1 4l13 4c-1,0 -1,1 -1,2l-13 -4c0,0 1,-1 1,-2zm-1 4l12 4c0,0 0,1 0,2l-13 -4c0,0 0,-1 1,-2zm-2 4l13 4c0,1 0,1 0,2l-13 -4c0,-1 0,-1 0,-2zm-1 4l13 4c0,1 -1,2 -1,2l-13 -4c1,0 1,-1 1,-2zm-1 4l13 4c-1,1 -1,2 -1,2l-13 -4c1,-1 1,-1 1,-2zm-1 4l12 4c0,1 0,2 0,3l-13 -5c0,0 0,-1 1,-2zm-2 4l13 4c0,1 0,2 -1,2l-12 -4c0,-1 0,-1 0,-2zm-1 4l13 4c-1,1 -1,2 -1,3l-13 -5c1,-1 1,-1 1,-2zm-1 4l12 4c0,1 0,2 -1,2l-12 -4c0,-1 0,-1 1,-2zm-2 3l13 5c0,1 -1,2 -1,3l-13 -5c1,-1 1,-2 1,-3zm-1 5l12 4c0,1 0,2 0,2l-13 -4c0,-1 1,-2 1,-2zm-2 3l13 5c0,1 -1,2 -1,3l-13 -5c1,-1 1,-2 1,-3zm-1 4l12 5c0,1 0,2 -1,2l-12 -5c0,0 1,-1 1,-2zm-2 4l13 5c-1,1 -1,2 -1,3l-13 -5c1,-1 1,-2 1,-3zm-1 4l12 5c0,1 -1,2 -1,2l-12 -5c0,-1 0,-1 1,-2zm-2 4l12 5c0,1 0,2 -1,2l-12 -5c0,-1 1,-1 1,-2zm-2 4l13 5c-1,1 -1,1 -1,2l-12 -5 0 -2zm-1 3l12 6c0,1 -1,1 -1,2l-12 -5c0,-1 0,-2 1,-3zm-2 4l12 6c0,1 0,1 -1,2l-12 -6 1 -2zm-2 4l13 5c-1,1 -1,2 -2,3l-12 -6c1,-1 1,-1 1,-2zm-2 4l13 6c-1,0 -1,1 -1,2l-12 -6c0,-1 0,-1 0,-2zm-1 3l12 6c-1,1 -1,2 -1,3l-12 -6c0,-1 0,-2 1,-3zm-2 4l12 6 -1 2 -12 -6 1 -2zm-2 4l12 6c0,1 -1,2 -1,2l-12 -6c0,-1 1,-1 1,-2zm-2 4l12 6c0,1 -1,1 -1,2l-12 -6c0,-1 1,-2 1,-2zm-2 3l12 6c0,1 -1,2 -1,3l-12 -7c0,0 1,-1 1,-2zm-2 4l12 6c0,1 -1,2 -1,2l-12 -6c0,-1 1,-1 1,-2zm-2 3l12 7c0,1 -1,2 -1,2l-12 -6c0,-1 1,-2 1,-3zm-2 4l12 7c-1,1 -1,1 -1,2l-12 -7c0,-1 1,-1 1,-2zm-2 4l12 6c-1,1 -1,2 -2,3l-11 -7c0,-1 1,-2 1,-2zm-2 4l11 6 -1 2 -11 -7 1 -1zm-2 3l11 7c0,0 -1,1 -1,2l-11 -7c0,-1 1,-1 1,-2zm-2 4l11 7c0,0 -1,1 -1,1l-11 -7c0,0 0,-1 1,-1zm-2 3l11 7c-1,1 -1,2 -2,2l-11 -7c1,-1 1,-1 2,-2zm-3 4l12 7c-1,0 -1,1 -2,2l-11 -8 1 -1zm-2 3l11 7c0,1 -1,2 -1,2l-11 -7c0,-1 1,-1 1,-2zm-2 4l11 7 -1 2 -11 -8c0,0 0,-1 1,-1zm-2 3l11 7c-1,1 -1,2 -2,3l-11 -8c1,-1 1,-1 2,-2zm-3 4l11 7c0,1 -1,1 -1,2l-11 -8 1 -1zm-2 3l11 7c-1,1 -1,2 -2,3l-11 -8c1,-1 1,-2 2,-2zm-3 3l11 8c0,1 -1,1 -1,2l-11 -8c0,-1 1,-1 1,-2zm-2 3l11 8c-1,1 -1,2 -2,3l-11 -8c1,-1 2,-2 2,-3zm-3 4l11 8 -1 2 -11 -8c1,-1 1,-1 1,-2zm-2 3l11 8c-1,1 -1,2 -2,2l-11 -8c1,0 2,-1 2,-2zm-3 4l11 8c0,0 -1,1 -1,2l-11 -9 1 -1zm-2 3l11 8c-1,1 -2,1 -2,2l-11 -8c1,-1 1,-2 2,-2zm-3 3l11 9 -2 1 -10 -8c0,-1 1,-1 1,-2zm-2 3l10 9c0,0 -1,1 -2,2l-10 -9c1,0 1,-1 2,-2zm-3 4l10 8c0,1 -1,1 -1,2l-10 -9c0,0 1,-1 1,-1zm-2 3l10 8c-1,1 -1,2 -2,2l-10 -8c0,-1 1,-2 2,-2zm-3 3l10 9c-1,0 -1,1 -2,1l-10 -8c1,-1 1,-1 2,-2zm-3 3l10 9c0,0 -1,1 -2,2l-10 -9c1,-1 2,-1 2,-2zm-3 3l10 9c0,1 -1,1 -1,2l-10 -9c0,-1 1,-1 1,-2zm-2 3l10 9c-1,1 -2,1 -2,2l-10 -9c0,-1 1,-1 2,-2zm-3 3l10 9c-1,1 -1,2 -2,2l-10 -9c1,-1 1,-1 2,-2zm-3 3l10 9c-1,1 -1,2 -2,2l-10 -9c1,0 1,-1 2,-2zm-3 4l10 9c-1,0 -1,1 -2,1l-9 -9c0,0 0,-1 1,-1zm-3 2l10 10c-1,0 -1,1 -2,2l-10 -10c1,0 2,-1 2,-2zm-3 4l10 9c-1,0 -1,1 -2,1l-9 -9c0,-1 1,-1 1,-1zm-2 2l9 10 -1 0 -1 2 -9 -10 1 -1 1 -1zm-4 3l10 10c-1,0 -1,1 -2,1l-9 -9c0,-1 1,-1 1,-2zm-2 3l9 10c-1,0 -1,1 -2,2l-9 -10c0,-1 1,-1 2,-2zm-4 3l10 10c-1,0 -1,1 -2,1l-9 -9 1 -2zm-2 3l9 10c-1,0 -2,1 -2,2l-9 -10c0,-1 1,-2 2,-2zm-4 3l9 10c0,0 -1,1 -1,1l-9 -10 1 -1zm-2 2l9 10c-1,1 -2,2 -3,2l-9 -10c1,0 2,-1 3,-2zm-4 3l9 10c0,1 -1,1 -2,2l-8 -10 1 -2zm-3 3l9 10c-1,1 -1,1 -2,2l-9 -10c1,-1 2,-1 2,-2zm-3 3l9 10c-1,1 -1,1 -2,1l-9 -10c1,0 1,-1 2,-1zm-3 2l9 11c-1,0 -2,1 -2,1l-9 -10c1,0 1,-1 2,-2zm-3 3l8 11c0,0 -1,0 -2,1l-8 -10c1,-1 1,-1 2,-2zm-3 3l8 10c-1,1 -1,1 -2,2l-9 -11c1,0 2,-1 3,-1zm-4 3l8 10 -1 1 -8 -10c0,-1 1,-1 1,-1zm-3 2l8 10c0,1 -1,2 -2,2l-8 -10c1,-1 1,-2 2,-2zm-3 3l8 10c-1,1 -1,1 -2,2l-8 -11 2 -1zm-3 2l8 11c-1,0 -2,1 -3,1l-8 -10c1,-1 2,-1 3,-2zm-4 3l8 10c-1,1 -1,1 -2,2l-8 -11c1,0 1,-1 2,-1zm-3 2l8 11c-1,0 -2,1 -2,1l-8 -10c0,-1 1,-1 2,-2zm-4 3l8 10c0,1 -1,1 -2,2l-7 -11c0,-1 1,-1 1,-1zm-3 2l8 11c-1,0 -2,1 -2,1l-8 -11c1,0 1,-1 2,-1zm-4 2l8 11c-1,1 -1,1 -2,2l-7 -11 1 -2zm-3 3l8 11c-1,0 -2,1 -2,1l-8 -11c1,0 2,-1 2,-1zm-3 2l7 11 -2 1 -7 -11c1,0 1,-1 2,-1zm-4 2l8 11c-1,1 -2,1 -3,2l-7 -11c1,-1 2,-1 2,-2zm-3 3l7 11 -2 1 -7 -11c1,-1 1,-1 2,-1zm-4 2l8 11c-1,0 -2,1 -3,1l-7 -11c1,0 2,-1 2,-1zm-3 2l7 11c-1,1 -2,1 -2,2l-7 -12c0,0 1,-1 2,-1zm-4 2l7 11c0,1 -1,1 -2,2l-7 -12c1,0 2,0 2,-1zm-4 2l7 12 -1 1 -7 -12 1 -1zm-3 2l7 12c-1,0 -2,1 -2,1l-7 -11c1,-1 1,-1 2,-2zm-4 3l7 11c-1,0 -1,1 -2,1l-6 -12c0,0 1,0 1,0zm-3 1l7 12c-1,1 -2,1 -3,1l-6 -11c0,-1 1,-1 2,-2zm-4 3l7 11c-1,1 -2,1 -2,1l-7 -11c1,-1 1,-1 2,-1zm-3 1l6 12c-1,1 -2,1 -2,1l-7 -11c1,-1 2,-1 3,-2zm-4 2l6 12c-1,1 -1,1 -2,1l-6 -12c1,0 1,0 2,-1zm-4 2l7 12c-1,1 -2,1 -3,1l-6 -11c1,-1 2,-1 2,-2zm-4 2l6 12c0,1 -1,1 -1,1l-6 -12c0,0 1,0 1,-1zm-3 2l6 12c-1,0 -2,1 -3,1l-5 -12c0,0 1,-1 2,-1zm-4 2l6 12c-1,0 -2,1 -2,1l-6 -12c1,0 1,-1 2,-1zm-4 2l6 12c-1,0 -1,1 -2,1l-6 -12c1,-1 2,-1 2,-1zm-4 2l6 12c-1,0 -1,0 -2,1l-5 -13c0,0 1,0 1,0zm-3 1l5 12c0,1 -1,1 -2,2l-6 -13c1,0 2,0 3,-1zm-4 2l5 12c0,1 -1,1 -2,1l-5 -12c1,0 1,-1 2,-1zm-4 1l6 13c-1,0 -2,1 -3,1l-5 -12c1,-1 2,-1 2,-2zm-4 2l5 13c0,0 -1,0 -2,0l-5 -12c1,0 2,0 2,-1zm-3 2l5 12c-1,0 -2,1 -3,1l-5 -12c1,-1 2,-1 3,-1zm-4 1l5 13c-1,0 -2,0 -2,1l-5 -13c0,0 1,0 2,-1zm-4 2l5 12c-1,1 -2,1 -3,1l-5 -12c1,-1 2,-1 3,-1zm-4 1l5 13c-1,0 -2,0 -2,1l-5 -13c1,0 1,0 2,-1zm-4 2l5 12c-1,1 -2,1 -3,1l-4 -12c1,-1 1,-1 2,-1zm-4 1l5 13c-1,0 -2,0 -3,1l-4 -13c1,0 1,0 2,-1zm-4 2l5 12c-1,1 -2,1 -3,1l-4 -13c1,0 2,0 2,0zm-4 1l4 13 -1 0 -5 -12 2 -1zm-3 1l4 13c-1,0 -2,1 -3,1l-4 -13c1,0 2,0 3,-1zm-5 2l4 12c0,1 -1,1 -2,1l-4 -13c1,0 2,0 2,0zm-3 1l4 13c-1,0 -2,0 -3,0l-4 -12c1,-1 2,-1 3,-1zm-5 1l4 13c0,0 -1,0 -2,1l-4 -13c1,0 2,-1 2,-1zm-3 1l4 13c-1,0 -2,1 -3,1l-4 -13c1,0 2,-1 3,-1zm-5 1l4 13c-1,1 -1,1 -2,1l-4 -13c1,0 2,0 2,-1zm-3 1l3 13c-1,1 -2,1 -2,1l-4 -13c1,0 2,0 3,-1zm-5 2l4 13c-1,0 -2,0 -2,0l-4 -13c1,0 2,0 2,0zm-3 1l3 13c-1,0 -2,0 -3,0l-3 -13c1,0 2,0 3,0zm-5 1l3 13c0,0 -1,0 -1,0l-4 -13c1,0 2,0 2,0zm-3 1l3 13c-1,0 -2,0 -3,0l-3 -13c1,0 2,0 3,0zm-5 1l3 13c-1,0 -1,0 -2,0l-3 -13c1,0 2,0 2,0zm-4 0l3 14c-1,0 -1,0 -2,0l-3 -13c1,0 2,0 2,-1zm-4 1l3 14c-1,0 -2,0 -2,0l-3 -13c1,0 1,0 2,-1zm-4 1l3 13c-1,1 -2,1 -3,1l-2 -13c1,-1 2,-1 2,-1zm-4 1l3 13c-1,0 -2,0 -3,1l-2 -14 2 0zm-4 1l3 13c-1,0 -2,0 -3,0l-2 -13c0,0 1,0 2,0zm-4 0l2 14c-1,0 -1,0 -2,0l-2 -13c0,0 1,0 2,-1zm-4 1l2 13c-1,1 -2,1 -2,1l-3 -13c1,-1 2,-1 3,-1zm-4 1l2 13c-1,0 -2,0 -2,0l-2 -13c0,0 1,0 2,0zm-4 0l2 14c-1,0 -2,0 -3,0l-2 -13c1,0 2,0 3,-1zm-5 1l2 13c0,0 -1,1 -2,1l-2 -14 2 0zm-3 1l1 13c-1,0 -2,0 -2,0l-2 -13c1,0 2,0 3,0zm-5 0l2 13c-1,1 -2,1 -2,1l-2 -14c1,0 1,0 2,0zm-4 1l2 13c-1,0 -2,0 -3,0l-1 -13c1,0 1,0 2,0zm-4 0l1 13c0,0 -1,1 -2,1l-1 -14 2 0zm-4 0l1 14c-1,0 -1,0 -2,0l-2 -13c1,0 2,-1 3,-1zm-4 1l1 13c-1,0 -2,0 -2,0l-1 -13c0,0 1,0 2,0zm-4 0l1 13c-1,1 -2,1 -3,1l-1 -14c1,0 2,0 3,0zm-5 0l1 14c0,0 -1,0 -2,0l-1 -13c1,-1 2,-1 2,-1zm-3 1l0 13c-1,0 -2,0 -3,0l0 -13c1,0 2,0 3,0zm-5 0l1 13c-1,0 -2,0 -2,0l-1 -13c1,0 1,0 2,0zm-4 0l1 14c-1,0 -2,0 -3,0l0 -14c0,0 1,0 2,0zm-4 0l0 14c-1,0 -1,0 -2,0l0 -14c0,0 1,0 2,0zm-4 0l0 14c-1,0 -2,0 -3,0l0 -14c1,0 2,0 3,0zm-5 0l1 14c-1,0 -2,0 -3,0l0 -14c1,0 2,0 2,0zm-3 0l0 14c-1,0 -2,0 -3,0l0 -14c1,0 2,0 3,0zm-5 1l0 13c-1,0 -1,0 -2,0l0 -14c1,0 1,1 2,1zm-4 -1l0 14c-1,0 -2,0 -3,0l1 -14c1,0 1,0 2,0zm-4 0l0 14c-1,0 -2,0 -3,0l1 -14c0,0 1,0 2,0zm-4 0l0 14c-1,0 -2,0 -3,0l0 -14c1,0 2,0 3,0zm-5 0l0 14c-1,0 -1,0 -2,0l0 -14 2 0zm-3 0l-1 14c-1,-1 -2,-1 -3,-1l1 -13c1,0 2,0 3,0zm-5 0l0 13c-1,0 -2,0 -3,0l1 -13c1,0 2,0 2,0zm-4 0l0 13c-1,0 -2,0 -3,0l1 -14c1,1 1,1 2,1zm-4 -1l-1 14c-1,0 -1,0 -2,0l1 -14 2 0zm-4 0l-1 14c-1,-1 -2,-1 -3,-1l1 -13c1,0 2,0 3,0zm-4 0l-1 13c-1,0 -2,0 -3,0l2 -13c0,0 1,0 2,0zm-4 -1l-1 14c-1,0 -2,0 -3,0l1 -14c1,0 2,0 3,0zm-5 0l-1 13c-1,0 -1,0 -2,0l1 -13c1,0 2,0 2,0zm-3 0l-2 13c-1,0 -2,0 -3,0l2 -14c1,0 2,0 3,1zm-5 -1l-2 13c0,0 -1,0 -2,0l2 -13c1,0 1,0 2,0zm-4 0l-1 13c-1,0 -2,0 -3,0l2 -14c0,0 1,0 2,1zm-4 -1l-2 13c-1,0 -1,0 -2,0l2 -13 2 0zm-4 -1l-2 14c-1,0 -2,-1 -3,-1l2 -13c1,0 2,0 3,0zm-4 0l-2 13c-1,0 -2,0 -3,0l3 -14c0,1 1,1 2,1zm-4 -1l-2 13c-1,0 -2,0 -3,0l2 -13c1,0 2,0 3,0zm-5 -1l-2 14c-1,0 -1,-1 -2,-1l3 -13 1 0zm-3 0l-3 13c-1,0 -2,0 -2,-1l2 -13c1,0 2,1 3,1zm-5 -1l-2 13c-1,0 -2,0 -2,0l2 -14 2 1zm-3 -1l-3 13c-1,0 -2,0 -3,0l3 -13c1,0 2,0 3,0zm-5 -1l-3 13c0,0 -1,0 -2,0l3 -13c1,0 1,0 2,0zm-4 -1l-2 14c-1,-1 -2,-1 -3,-1l3 -13c1,0 1,0 2,0zm-4 -1l-3 14c-1,-1 -1,-1 -2,-1l3 -13c1,0 1,0 2,0zm-4 0l-3 13c-1,-1 -2,-1 -3,-1l4 -13c1,0 1,0 2,1zm-4 -1l-3 13c-1,-1 -2,-1 -2,-1l3 -13c1,0 1,0 2,1zm-4 -1l-3 13c-1,-1 -2,-1 -3,-1l4 -13c0,0 1,0 2,1zm-4 -2l-4 13c0,0 -1,0 -2,0l4 -13c1,0 1,0 2,0zm-4 -1l-3 13c-1,0 -2,0 -3,0l4 -13c0,0 1,0 2,0zm-4 -1l-4 13c0,0 -1,0 -2,0l4 -13 2 0zm-4 -1l-4 13c0,0 -1,0 -2,-1l4 -13c0,1 1,1 2,1zm-4 -1l-4 13c-1,0 -1,-1 -2,-1l4 -13c1,0 1,1 2,1zm-4 -1l-4 13c-1,-1 -2,-1 -3,-1l5 -13c0,0 1,0 2,1zm-4 -2l-4 13c-1,0 -2,0 -2,0l4 -13c1,0 1,0 2,0zm-4 -1l-4 13c-1,0 -2,-1 -3,-1l5 -13c1,1 2,1 2,1zm-4 -1l-4 13c-1,-1 -2,-1 -2,-1l4 -13c1,0 1,1 2,1zm-4 -1l-4 12c-1,0 -2,0 -3,-1l5 -12c1,0 2,0 2,1zm-4 -2l-4 13c-1,-1 -2,-1 -2,-1l4 -13c1,1 2,1 2,1zm-3 -1l-5 12c-1,0 -2,0 -3,-1l5 -12c1,0 2,0 3,1zm-5 -2l-4 13c-1,-1 -2,-1 -2,-1l5 -13c0,1 1,1 1,1zm-3 -1l-5 12c-1,0 -2,0 -3,-1l5 -12c1,0 2,0 3,1zm-4 -2l-5 13c-1,-1 -2,-1 -2,-1l5 -13c0,1 1,1 2,1zm-4 -1l-5 12c-1,0 -2,-1 -3,-1l6 -12c1,0 1,0 2,1zm-4 -2l-5 12 -1 0 -1 0 5 -13 2 1 0 0zm-3 -2l-6 13c-1,-1 -2,-1 -2,-1l5 -13c1,1 2,1 3,1zm-5 -1l-5 12c-1,0 -1,-1 -2,-1l6 -12c0,0 1,0 1,1zm-3 -2l-6 12c0,0 -1,0 -2,-1l5 -12c1,0 2,1 3,1zm-4 -2l-6 12c0,0 -1,0 -2,0l6 -13c1,1 1,1 2,1zm-4 -1l-5 12c-1,-1 -2,-1 -3,-1l6 -13c1,1 2,1 2,2zm-4 -2l-6 12c0,-1 -1,-1 -1,-1l5 -12 2 1zm-3 -2l-6 12c-1,0 -2,-1 -3,-1l7 -12c0,0 1,1 2,1zm-4 -2l-6 12c-1,0 -1,-1 -2,-1l6 -12c1,0 1,1 2,1zm-4 -2l-6 12c-1,0 -1,-1 -2,-1l6 -12c1,0 2,1 2,1zm-4 -2l-6 12c0,0 -1,-1 -2,-1l7 -12 1 1zm-3 -2l-6 12c-1,0 -2,-1 -3,-1l7 -12c1,1 1,1 2,1zm-4 -2l-6 12c-1,0 -1,-1 -2,-1l6 -12c1,1 2,1 2,1zm-3 -2l-7 12c-1,0 -1,-1 -2,-1l6 -12c1,0 2,1 3,1zm-4 -2l-7 12c0,0 -1,-1 -2,-1l7 -12 1 0c0,0 0,1 0,1 0,0 0,0 0,0l1 0zm-3 -2l-7 12c-1,-1 -2,-1 -3,-2l7 -11c1,0 2,1 3,1zm-4 -2l-7 12c-1,-1 -1,-1 -2,-2l7 -11 2 1zm-4 -2l-7 12c0,-1 -1,-1 -2,-2l7 -11c1,0 2,1 2,1zm-3 -2l-7 11 -2 -1 7 -11c1,0 1,0 2,1zm-4 -2l-7 11c-1,0 -1,-1 -2,-1l7 -12c1,1 2,1 2,2zm-3 -3l-8 12c0,-1 -1,-1 -1,-2l7 -11c0,0 1,1 2,1zm-4 -2l-7 11c-1,0 -2,-1 -2,-1l7 -11c1,0 2,1 2,1zm-3 -2l-8 11c0,-1 -1,-1 -2,-1l8 -12 2 2zm-3 -3l-8 12c-1,-1 -2,-1 -2,-2l7 -11c1,0 2,1 3,1zm-4 -2l-8 11c0,0 -1,-1 -2,-1l8 -11 2 1zm-3 -2l-8 11c-1,-1 -2,-1 -2,-2l8 -11c0,1 1,1 2,2zm-4 -3l-8 11 -1 -1 8 -11 1 1zm-3 -2l-8 11c-1,-1 -1,-1 -2,-2l8 -11c1,1 1,1 2,2zm-4 -3l-8 11c0,0 -1,-1 -1,-1l8 -11c0,0 1,1 1,1zm-3 -2l-8 11c-1,-1 -1,-1 -2,-2l8 -11c1,1 2,1 2,2zm-3 -3l-8 11c-1,-1 -2,-1 -2,-1l8 -11c1,0 1,1 2,1zm-3 -2l-9 11c0,-1 -1,-2 -2,-2l9 -11c0,1 1,1 2,2zm-4 -3l-8 11c-1,-1 -1,-1 -2,-2l9 -10c0,0 1,1 1,1zm-3 -2l-8 10c-1,0 -2,-1 -2,-2l8 -10c1,1 2,1 2,2zm-3 -3l-9 10c0,0 -1,-1 -1,-1l8 -10 2 1zm-3 -3l-9 11c0,-1 -1,-2 -2,-2l9 -10c1,0 1,1 2,1zm-4 -3l-8 11 -2 -2 9 -10 1 1zm-2 -2l-9 10c-1,-1 -2,-1 -2,-2l9 -10c0,1 1,1 2,2zm-4 -3l-9 10c0,0 -1,-1 -1,-1l9 -10c0,0 1,0 1,1zm-3 -3l-9 10c0,0 -1,-1 -2,-1l9 -10c1,0 2,1 2,1zm-3 -3l-9 10c-1,0 -1,-1 -2,-1l10 -10c0,0 1,1 1,1zm-3 -2l-9 10c-1,-1 -1,-2 -2,-2l9 -10c1,1 2,1 2,2zm-3 -3l-9 9c-1,0 -1,-1 -2,-1l10 -10c0,1 1,1 1,2zm-3 -3l-9 10c-1,-1 -1,-2 -2,-2l9 -10c1,1 2,1 2,2zm-3 -3l-9 10c-1,-1 -1,-1 -2,-2l10 -10 1 2zm-3 -3l-9 10c-1,-1 -2,-2 -2,-2l9 -10c1,1 2,2 2,2zm-3 -3l-9 9 -2 -1 10 -9 1 1zm-2 -3l-10 10c-1,-1 -1,-2 -2,-2l10 -10c0,1 1,2 2,2zm-3 -3l-10 9c-1,0 -1,-1 -2,-1l10 -9c1,0 1,1 2,1zm-3 -3l-10 9c-1,0 -1,-1 -2,-2l10 -9c1,1 1,2 2,2zm-3 -3l-10 9 -2 -2 10 -9c1,1 1,1 2,2zm-3 -3l-10 9c0,-1 -1,-1 -2,-2l10 -9c1,1 2,1 2,2zm-3 -3l-10 9 -1 -2 10 -9c0,1 1,1 1,2zm-2 -3l-10 9c-1,-1 -2,-2 -2,-2l10 -9c1,0 1,1 2,2zm-3 -4l-10 9c-1,0 -1,-1 -2,-1l11 -9c0,0 0,1 1,1zm-3 -2l-10 8c-1,0 -1,-1 -2,-2l11 -9c0,1 1,2 1,3zm-3 -4l-10 9c0,-1 -1,-1 -1,-2l10 -8c1,0 1,1 1,1zm-2 -3l-10 9c-1,-1 -2,-2 -2,-3l10 -8c1,1 2,1 2,2zm-3 -3l-10 8c-1,-1 -1,-1 -2,-2l11 -8c0,1 1,1 1,2zm-2 -3l-11 8c0,-1 -1,-2 -1,-2l10 -9c1,1 1,2 2,3zm-3 -4l-11 8c0,0 0,-1 -1,-1l11 -9 1 2zm-2 -3l-11 8c0,-1 -1,-1 -2,-2l11 -8c1,1 1,1 2,2zm-3 -4l-11 8 -1 -1 11 -8c0,0 1,1 1,1zm-2 -3l-11 8c-1,0 -1,-1 -2,-2l11 -8c1,1 1,2 2,2zm-3 -3l-11 8c0,-1 -1,-2 -1,-2l11 -8c1,1 1,1 1,2zm-2 -3l-11 7c-1,0 -1,-1 -2,-2l12 -8c0,1 1,2 1,3zm-2 -4l-12 8c0,-1 0,-2 -1,-2l11 -8c1,1 1,1 2,2zm-3 -3l-11 7c0,0 -1,-1 -1,-2l11 -8c0,1 1,2 1,3zm-2 -4l-11 7 -1 -1 11 -8 1 2zm-2 -3l-11 7c-1,-1 -2,-1 -2,-2l11 -7c1,0 1,1 2,2zm-3 -4l-11 7c0,0 -1,-1 -1,-1l11 -8c1,1 1,1 1,2zm-2 -3l-11 7c-1,-1 -1,-2 -2,-2l12 -8c0,1 1,2 1,3zm-2 -4l-12 7c0,-1 0,-1 -1,-2l12 -7 1 2zm-2 -3l-12 7c0,-1 -1,-2 -1,-3l12 -7c0,1 1,2 1,3zm-2 -4l-12 7c0,-1 -1,-1 -1,-2l12 -7c0,1 0,1 1,2zm-2 -3l-12 6c0,0 -1,-1 -1,-2l11 -7c1,1 1,2 2,3zm-2 -4l-12 6c-1,0 -1,-1 -1,-1l12 -7 1 2zm-2 -4l-12 7c-1,-1 -1,-2 -1,-3l11 -6c1,1 1,2 2,2zm-2 -4l-12 7c-1,-1 -1,-1 -1,-2l12 -6c0,0 0,1 1,1zm-2 -3l-12 6c-1,0 -1,-1 -2,-2l12 -6c1,0 1,1 2,2zm-2 -4l-12 6c-1,0 -1,-1 -1,-2l12 -6c0,1 0,1 1,2zm-2 -3l-12 6c-1,-1 -1,-2 -1,-3l12 -6c0,1 0,2 1,3zm-2 -4l-12 6c-1,-1 -1,-2 -1,-2l12 -6c0,0 1,1 1,2zm-2 -4l-12 6c0,-1 -1,-2 -1,-2l12 -6c0,1 1,1 1,2zm-2 -4l-12 6c0,-1 -1,-1 -1,-2l12 -6c1,1 1,2 1,2zm-1 -3l-13 5c0,0 0,-1 -1,-2l12 -6c1,1 1,2 2,3zm-2 -4l-13 5c0,0 0,-1 0,-2l12 -5c0,0 0,1 1,2zm-2 -4l-12 6c-1,-1 -1,-2 -1,-3l12 -5c0,1 1,1 1,2zm-2 -4l-12 5c0,0 -1,-1 -1,-1l13 -6c0,1 0,1 0,2zm-1 -3l-13 5 0 -1 -1 -2 13 -5 0 1 1 2zm-2 -5l-12 6 -1 -2 12 -5 1 1zm-1 -3l-13 5c0,-1 -1,-2 -1,-3l13 -5c0,1 0,2 1,3zm-2 -4l-13 5 0 -2 12 -5 1 2zm-1 -4l-13 5c0,-1 -1,-2 -1,-3l13 -4c0,1 0,1 1,2zm-2 -4l-13 5c0,-1 0,-2 0,-2l12 -5 1 2zm-1 -4l-13 5c0,-1 -1,-2 -1,-3l13 -4c0,1 0,2 1,2zm-2 -4l-13 5c0,-1 0,-2 0,-2l12 -5c1,1 1,2 1,2zm-1 -3l-13 4c0,-1 -1,-2 -1,-3l13 -4c0,1 1,2 1,3zm-2 -5l-12 5c-1,-1 -1,-2 -1,-2l13 -5 0 2zm-1 -3l-13 4c0,-1 0,-2 -1,-3l13 -4c1,1 1,2 1,3zm-1 -5l-13 5c0,-1 -1,-2 -1,-2l13 -5c0,1 1,2 1,2zm-1 -3l-13 4c-1,-1 -1,-2 -1,-3l13 -4c0,1 0,2 1,3zm-2 -5l-13 4c0,0 0,-1 0,-2l13 -3c0,0 0,1 0,1zm-1 -3l-13 4c0,-1 0,-2 0,-3l13 -4c0,1 0,2 0,3zm-1 -4l-13 3c0,-1 0,-1 -1,-2l14 -3c0,0 0,1 0,2zm-1 -4l-13 3c0,-1 -1,-1 -1,-2l13 -4c1,1 1,2 1,3zm-1 -5l-13 4c0,-1 -1,-1 -1,-2l13 -3c1,0 1,1 1,1zm-1 -3l-13 3c0,-1 -1,-2 -1,-3l13 -3c1,1 1,2 1,3zm-1 -5l-13 4c0,-1 -1,-2 -1,-2l13 -4c1,1 1,2 1,2zm-1 -3l-13 3c0,-1 -1,-2 -1,-3l13 -3c1,1 1,2 1,3zm-1 -5l-13 3c0,0 -1,-1 -1,-2l14 -3c0,1 0,2 0,2zm-1 -3l-13 2c0,0 0,-1 -1,-2l14 -3c0,1 0,2 0,3zm-1 -5l-13 3c0,-1 0,-1 0,-2l13 -3c0,1 0,2 0,2zm0 -3l-14 2c0,-1 0,-2 0,-3l13 -2c0,1 0,2 1,3zm-1 -5l-14 3c0,-1 0,-2 0,-2l13 -3c0,1 1,1 1,2zm-1 -4l-13 3c0,-1 -1,-2 -1,-3l14 -2c0,1 0,1 0,2zm-1 -4l-13 2c0,-1 0,-1 0,-2l13 -2c0,1 0,1 0,2zm0 -4l-14 2c0,-1 0,-2 0,-3l13 -2c0,1 0,2 1,3zm-1 -4l-13 2c-1,-1 -1,-2 -1,-2l14 -2 0 2zm-1 -4l-13 2c0,-1 0,-2 0,-3l13 -2c0,1 0,2 0,3zm0 -5l-14 2c0,0 0,-1 0,-2l14 -1c0,0 0,1 0,1zm-1 -3l-13 1c0,-1 0,-1 0,-2l13 -2c0,1 0,2 0,3zm0 -5l-14 2c0,-1 0,-2 0,-2l14 -2c0,1 0,2 0,2zm-1 -4l-13 2c0,-1 0,-2 0,-3l13 -1c0,1 0,2 0,2zm0 -4l-14 1c0,0 0,-1 0,-2l14 -1c0,1 0,1 0,2zm0 -4l-14 1c0,-1 0,-2 0,-2l13 -2c0,1 0,2 1,3zm-1 -4l-13 1c0,-1 0,-2 -1,-2l14 -1c0,0 0,1 0,2zm0 -4l-14 1c0,-1 0,-2 0,-3l14 -1c0,1 0,2 0,3zm0 -5l-14 1c0,0 0,-1 0,-2l13 -1c0,1 1,2 1,2zm-1 -3l-13 0c0,-1 0,-2 0,-2l13 -1c0,1 0,2 0,3zm0 -5l-13 1c0,-1 -1,-2 -1,-2l14 -1c0,1 0,1 0,2zm0 -4l-14 1c0,-1 0,-2 0,-3l14 0c0,0 0,1 0,2zm0 -4l-14 0c0,-1 0,-1 0,-2l14 0c0,0 0,1 0,2zm0 -4l-14 0c0,-1 0,-2 0,-3l14 0c0,1 0,2 0,3zm0 -4l-14 0c0,-1 0,-2 0,-2l14 0c0,0 0,1 0,2zm0 -4l-14 0c0,-1 0,-2 0,-2l0 -1 14 0 0 1c0,0 0,1 0,2zm0 -4l-14 -1c0,0 0,-1 0,-2l14 0c0,1 0,2 0,3zm0 -5l-14 0c0,-1 0,-2 0,-3l14 1 0 0c0,0 0,1 0,1l0 1zm0 -4l-14 0c0,-1 0,-2 0,-3l14 1 0 2zm0 -4l-14 0c0,-1 0,-2 0,-3l14 0c0,1 0,2 0,3zm0 -4l-14 -1 0 -2 14 0 0 3zm0 -4l-13 -1c0,-1 0,-2 0,-3l13 1c0,1 0,2 0,3zm0 -5l-13 -1c0,0 0,-1 0,-2l13 1 0 2zm1 -4l-14 0c0,-1 0,-2 0,-3l14 1c0,1 0,2 0,2zm0 -4l-14 -1c0,-1 0,-1 1,-2l13 1c0,1 0,1 0,2zm0 -4l-13 -1c0,-1 0,-2 0,-3l13 1c0,1 0,2 0,3zm1 -4l-14 -2c0,0 0,-1 0,-2l14 2 0 2zm0 -4l-14 -1c1,-1 1,-2 1,-3l13 1c0,1 0,2 0,3zm0 -5l-13 -1c0,-1 0,-1 0,-2l14 1c0,1 -1,2 -1,2zm1 -3l-14 -2c0,-1 1,-2 1,-3l13 2c0,1 0,2 0,3zm0 -5l-13 -1c0,-1 0,-2 0,-3l14 2c0,1 -1,2 -1,2zm1 -4l-14 -1c1,-1 1,-2 1,-3l13 2c0,1 0,1 0,2zm0 -4l-13 -2 0 -2 14 2 -1 2zm1 -4l-13 -2c0,-1 0,-2 0,-3l13 2c0,1 0,2 0,3zm1 -4l-14 -2c0,-1 1,-2 1,-3l13 3c0,0 0,1 0,2zm0 -4l-13 -2c0,-1 0,-2 0,-3l14 2c0,1 -1,2 -1,3zm1 -4l-13 -3c0,-1 0,-1 0,-2l13 2c0,1 0,2 0,3zm1 -4l-14 -3c1,-1 1,-2 1,-2l13 2c0,1 0,2 0,3zm1 -5l-14 -2c0,-1 1,-2 1,-2l13 2c0,1 0,2 0,2zm0 -3l-13 -3c0,-1 0,-2 1,-3l13 3c0,1 0,2 -1,3zm1 -5l-13 -3c0,0 0,-1 1,-2l13 3 -1 2zm1 -4l-13 -2c0,-1 0,-2 1,-3l13 3c0,1 -1,2 -1,2zm1 -4l-13 -3c0,-1 0,-1 0,-2l14 3c-1,1 -1,1 -1,2zm1 -4l-13 -3c0,-1 0,-2 1,-2l13 3c-1,1 -1,2 -1,2zm1 -4l-13 -3 0 -2 14 3c-1,1 -1,1 -1,2zm1 -4l-13 -3c0,-1 0,-2 1,-3l13 4c-1,1 -1,2 -1,2zm1 -4l-13 -3c0,-1 0,-2 1,-3l13 4c0,1 -1,1 -1,2zm1 -4l-13 -3c0,-1 1,-2 1,-3l13 4c0,1 -1,1 -1,2zm1 -4l-13 -4c1,0 1,-1 1,-2l13 4c0,1 0,1 -1,2zm1 -4l-12 -4c0,0 0,-1 0,-2l13 4c0,1 0,1 -1,2zm2 -4l-13 -4c0,-1 0,-1 0,-2l13 4c0,1 0,1 0,2zm1 -4l-13 -4c0,-1 1,-1 1,-2l13 4c-1,1 -1,2 -1,2zm1 -4l-13 -4c1,-1 1,-1 1,-2l13 4c0,1 0,2 -1,2zm2 -3l-13 -5c0,-1 0,-2 1,-2l12 4c0,1 0,2 0,3zm1 -5l-13 -4c0,-1 1,-1 1,-2l13 4 -1 2zm1 -3l-13 -5c1,-1 1,-2 1,-2l13 4c0,1 0,2 -1,3zm2 -5l-13 -4c0,-1 1,-2 1,-2l12 5c0,0 0,1 0,1zm1 -3l-13 -5c1,-1 1,-2 1,-2l13 4c0,1 -1,2 -1,3zm2 -4l-13 -5c0,-1 1,-1 1,-2l12 5c0,0 0,1 0,2zm1 -4l-13 -5c1,-1 1,-2 2,-2l12 5c0,0 -1,1 -1,2zm2 -4l-13 -5c0,-1 1,-1 1,-2l13 5c-1,1 -1,1 -1,2zm1 -4l-12 -5c0,-1 0,-2 1,-2l12 5c0,1 0,2 -1,2zm2 -4l-12 -5c0,-1 0,-1 0,-2l13 5 -1 2zm1 -3l-12 -6c0,0 1,-1 1,-2l13 5c-1,1 -1,2 -2,3zm2 -4l-12 -6c0,0 0,-1 1,-2l12 6 -1 2zm2 -4l-12 -5c0,-1 0,-2 1,-3l12 6c0,1 -1,1 -1,2zm2 -4l-13 -6c1,0 1,-1 1,-2l13 6c-1,1 -1,1 -1,2zm1 -3l-12 -6c1,-1 1,-2 1,-3l13 6c-1,1 -1,2 -2,3zm2 -4l-12 -6c0,-1 1,-2 1,-2l12 6c0,0 0,1 -1,2zm2 -4l-12 -6c0,-1 1,-2 1,-2l12 6c0,1 -1,1 -1,2zm2 -4l-12 -6 1 -2 12 6 -1 2zm2 -3l-12 -6c0,-1 1,-2 1,-3l12 6c0,1 -1,2 -1,3zm2 -4l-12 -6c0,-1 1,-2 1,-2l12 6 -1 2zm2 -4l-12 -6c0,-1 1,-2 1,-2l12 6c0,1 -1,2 -1,2zm2 -3l-12 -7c0,-1 1,-1 1,-2l12 7c0,0 -1,1 -1,2zm2 -4l-12 -6c0,-1 1,-2 1,-3l12 7c0,1 -1,1 -1,2zm2 -4l-12 -6c1,-1 1,-2 1,-2l12 7 -1 1zm2 -3l-12 -7c1,-1 1,-1 2,-2l11 7c0,0 -1,1 -1,2zm2 -4l-11 -7c0,0 0,-1 1,-2l11 7 -1 2zm2 -3l-11 -7c0,-1 1,-2 1,-3l12 8c-1,0 -1,1 -2,2zm3 -4l-12 -7 1 -2 12 7c-1,1 -1,1 -1,2zm2 -3l-12 -7c1,-1 1,-2 2,-3l11 8c0,0 -1,1 -1,2zm2 -4l-11 -7c0,-1 0,-1 1,-2l11 7 -1 2zm2 -3l-11 -8c0,0 1,-1 1,-2l12 8c-1,0 -1,1 -2,2zm3 -4l-12 -7c1,-1 1,-2 2,-2l11 7c-1,1 -1,2 -1,2zm2 -3l-11 -8c0,0 1,-1 1,-2l11 8c0,1 -1,1 -1,2zm2 -4l-11 -7c1,-1 1,-2 1,-2l11 8c0,0 0,1 -1,1zm3 -3l-11 -8c0,0 1,-1 1,-2l11 8c0,1 -1,1 -1,2zm2 -4l-11 -7c1,-1 1,-2 1,-2l11 8c0,0 0,1 -1,1zm2 -3l-10 -8c0,0 1,-1 1,-2l11 8c-1,1 -1,2 -2,2zm3 -3l-11 -8c1,-1 1,-1 2,-2l10 8c0,1 -1,1 -1,2zm2 -3l-10 -8c0,-1 1,-2 1,-3l11 9c-1,0 -1,1 -2,2zm3 -4l-11 -8c1,-1 1,-1 2,-2l10 9c0,0 0,1 -1,1zm3 -3l-11 -8c1,-1 1,-2 2,-2l10 8c0,1 -1,2 -1,2zm2 -3l-10 -9c0,0 1,-1 1,-1l11 8c-1,1 -1,1 -2,2zm3 -3l-11 -9c1,0 2,-1 2,-2l10 9c0,0 -1,1 -1,2zm3 -4l-11 -8c1,-1 1,-1 2,-2l10 9 -1 1zm2 -3l-10 -8c0,-1 1,-2 2,-2l10 8c-1,1 -1,2 -2,2zm3 -3l-10 -9c0,0 1,-1 1,-1l10 9c0,0 -1,1 -1,1zm3 -3l-11 -9c1,0 2,-1 2,-2l10 9c0,1 -1,2 -1,2zm2 -3l-10 -9c1,-1 1,-1 2,-2l10 9c-1,1 -1,1 -2,2zm3 -3l-10 -9c1,-1 1,-1 2,-2l10 9c-1,1 -1,1 -2,2zm3 -3l-10 -9c1,-1 1,-2 2,-2l9 9 -1 2zm3 -3l-10 -9c1,-1 1,-2 2,-2l10 9c-1,1 -2,1 -2,2zm3 -3l-10 -10c1,0 1,-1 2,-1l9 9 -1 2zm3 -3l-10 -10c0,0 1,-1 2,-2l9 10c0,1 -1,1 -1,2zm3 -3l-10 -10 1 0 1 -1 9 9 -1 1 0 1zm2 -3l-9 -10c1,0 1,-1 2,-2l9 10c0,1 -1,1 -2,2zm4 -3l-10 -10c1,0 1,-1 2,-1l9 10c0,0 -1,0 -1,1zm2 -3l-9 -9c1,-1 1,-2 2,-2l9 9c0,1 -1,2 -2,2zm4 -3l-10 -10c1,0 1,-1 2,-1l9 10 -1 1zm2 -2l-9 -10c1,-1 2,-2 2,-2l9 10c0,0 -1,1 -2,2zm4 -3l-9 -11 1 -1 9 10c0,1 -1,1 -1,2zm3 -3l-9 -10c0,-1 1,-1 2,-2l9 10c-1,1 -2,1 -2,2zm3 -3l-9 -10c1,-1 1,-1 2,-2l8 11 -1 1zm3 -2l-9 -11c1,0 1,-1 2,-2l9 11c-1,0 -2,1 -2,2zm3 -3l-9 -11c1,0 2,-1 2,-1l9 10 -2 2zm3 -3l-9 -10c1,-1 2,-1 3,-2l8 10c0,1 -1,2 -2,2zm4 -3l-9 -10c1,-1 1,-1 2,-2l8 11c0,0 -1,1 -1,1zm3 -2l-9 -11c1,0 2,-1 2,-1l9 10c-1,1 -2,1 -2,2zm3 -3l-8 -11c0,0 1,0 1,-1l9 11 -2 1zm3 -2l-8 -11c1,0 1,-1 2,-2l8 11c0,1 -1,1 -2,2zm4 -3l-8 -11 1 -1 8 11c0,0 -1,1 -1,1zm3 -2l-8 -11c0,-1 1,-1 2,-2l8 11c-1,1 -2,1 -2,2zm3 -3l-8 -11c1,0 1,-1 2,-1l8 11 -2 1zm3 -2l-7 -11c0,-1 1,-1 2,-2l8 11c-1,1 -2,1 -3,2zm4 -3l-8 -11c1,0 1,-1 2,-1l8 11c-1,0 -1,1 -2,1zm3 -2l-8 -11c1,-1 2,-1 3,-2l7 11c0,1 -1,1 -2,2zm4 -3l-8 -11c1,0 1,0 2,-1l8 11 -2 1zm3 -2l-7 -11c0,0 1,-1 2,-1l7 11c0,0 -1,1 -2,1zm4 -2l-8 -11c1,-1 2,-1 2,-2l7 12c0,0 -1,0 -1,1zm3 -2l-7 -12c0,0 1,-1 2,-1l7 11c0,1 -1,1 -2,2zm4 -3l-7 -11c0,0 1,-1 1,-1l7 11 -1 1zm3 -2l-7 -11c1,-1 2,-1 2,-2l7 12c0,0 -1,1 -2,1zm4 -2l-7 -12c0,0 1,0 2,-1l7 12 -2 1zm3 -2l-7 -12c1,0 2,-1 3,-1l6 12c0,0 -1,1 -2,1zm4 -2l-7 -12c1,0 1,-1 2,-1l7 12 0 0c-1,0 -1,0 -1,0 0,0 0,0 0,0l-1 1zm3 -2l-6 -12c0,0 1,-1 2,-1l7 12c-1,0 -2,0 -3,1zm4 -2l-6 -12c0,0 1,-1 1,-1l7 12c-1,0 -1,0 -2,1zm4 -2l-7 -12c1,-1 2,-1 3,-1l6 11c-1,1 -2,1 -2,2zm4 -2l-7 -12 2 -1 6 12 -1 1zm3 -2l-6 -12c0,-1 1,-1 2,-1l6 12c-1,0 -1,0 -2,1zm4 -2l-6 -12c0,-1 1,-1 2,-1l6 12 -2 1zm3 -2l-6 -12c1,0 2,-1 3,-1l6 12c-1,0 -2,1 -3,1zm4 -2l-6 -12c1,0 2,-1 2,-1l6 12 -2 1zm4 -2l-6 -12c1,0 1,-1 2,-1l6 12c-1,1 -2,1 -2,1zm4 -2l-6 -12c1,0 1,0 2,-1l6 13c-1,0 -2,0 -2,0zm3 -1l-6 -12c1,-1 2,-1 3,-2l6 13c-1,0 -2,0 -3,1zm4 -2l-5 -12c0,-1 1,-1 2,-1l5 12 -2 1zm4 -2l-6 -12c1,0 2,-1 3,-1l5 12c-1,1 -1,1 -2,1zm4 -1l-5 -13c0,0 1,0 1,-1l6 13c-1,0 -1,0 -2,1zm3 -2l-5 -12c1,-1 2,-1 3,-1l5 12c-1,0 -2,1 -3,1zm5 -2l-6 -12c1,0 2,-1 2,-1l5 13 -1 0zm3 -1l-5 -13c1,0 2,0 3,-1l5 13c-1,0 -2,1 -3,1zm4 -2l-5 -12c1,-1 2,-1 2,-1l5 13 -2 0zm4 -1l-5 -13c1,0 2,0 3,-1l4 13c0,0 -1,1 -2,1zm4 -2l-5 -12c1,-1 2,-1 2,-1l5 13c-1,0 -1,0 -2,0zm4 -1l-5 -13c1,0 2,0 3,-1l4 13c-1,0 -2,1 -2,1zm4 -1l-5 -13c1,0 2,-1 2,-1l5 13c-1,0 -2,0 -2,1zm3 -2l-4 -13c1,0 2,0 3,0l4 12c-1,1 -2,1 -3,1zm5 -1l-5 -13c1,0 2,0 2,-1l5 13c-1,0 -2,1 -2,1zm3 -1l-4 -13c1,-1 2,-1 3,-1l4 13c-1,0 -2,0 -3,1zm5 -2l-4 -13c0,0 1,0 2,0l4 13c-1,0 -2,0 -2,0zm3 -1l-4 -13c1,0 2,0 3,-1l4 13c-1,1 -2,1 -3,1zm5 -1l-4 -13c0,0 1,-1 2,-1l4 13c-1,1 -2,1 -2,1zm3 -1l-3 -13c0,0 1,-1 2,-1l4 13c-1,0 -2,1 -3,1zm5 -1l-4 -13c1,-1 1,-1 2,-1l4 13 -2 1zm3 -1l-3 -13c1,-1 2,-1 3,-1l3 13c-1,0 -2,0 -3,1zm5 -2l-4 -13c1,0 2,0 2,0l4 13c-1,0 -2,0 -2,0zm3 0l-3 -14c1,0 2,0 3,0l3 13c-1,0 -2,0 -3,1zm5 -1l-3 -14c0,0 1,0 2,0l3 13c-1,0 -2,0 -2,1zm3 -1l-3 -14c1,0 2,0 3,0l3 13c-1,0 -2,0 -3,1zm5 -1l-3 -14c1,0 1,0 2,0l3 13c-1,0 -2,1 -2,1zm3 -1l-2 -13c1,-1 2,-1 2,-1l3 13c-1,1 -2,1 -3,1zm5 -1l-3 -13c1,0 2,-1 2,-1l3 14c-1,0 -1,0 -2,0zm4 -1l-3 -13c1,0 2,0 3,-1l2 14c-1,0 -1,0 -2,0zm4 -1l-2 -13c0,0 1,0 2,0l2 13c-1,0 -1,0 -2,0zm4 0l-3 -14c1,0 2,0 3,0l2 13c0,0 -1,1 -2,1zm4 -1l-2 -13c1,0 1,-1 2,-1l2 14c0,0 -1,0 -2,0zm4 -1l-2 -13c1,0 2,0 3,0l2 13c-1,0 -2,0 -3,0zm4 0l-2 -14c1,0 2,0 3,0l1 13c0,1 -1,1 -2,1zm4 -1l-2 -13c1,0 2,0 3,-1l2 14c-1,0 -2,0 -3,0zm5 0l-2 -14c1,0 1,0 2,0l2 13c-1,0 -2,1 -2,1zm4 -1l-2 -13c1,0 2,-1 3,-1l1 14c-1,0 -2,0 -2,0zm4 0l-2 -14c1,0 2,0 3,0l1 13c-1,0 -1,1 -2,1zm4 -1l-2 -13c1,0 2,0 3,-1l1 14c0,0 -1,0 -2,0zm4 0l-1 -14c1,0 1,0 2,0l1 14 -2 0zm4 -1l-1 -13c1,0 2,0 3,0l1 13c-1,0 -2,0 -3,0zm4 0l-1 -13c1,0 2,-1 3,-1l0 14c0,0 -1,0 -2,0zm4 0l-1 -14c1,0 2,0 3,0l1 14c-1,0 -2,0 -3,0zm5 0l-1 -14c1,0 1,0 2,0l1 13c-1,0 -2,0 -2,1zm4 -1l-1 -13c1,0 2,0 3,0l0 13c-1,0 -2,0 -2,0zm4 0l-1 -13c1,0 2,0 3,-1l0 14c-1,0 -1,0 -2,0zm4 0l-1 -14c1,0 2,0 3,0l1 14c-1,0 -2,0 -3,0zm4 0l0 -14c1,0 1,0 2,0l0 14c0,0 -1,0 -2,0zm4 0l0 -14c1,0 2,0 3,0l0 14c-1,0 -2,0 -3,0zm5 0l0 -14c1,0 2,0 3,0l0 14c-1,0 -2,0 -3,0zm4 0l0 -14 2 0 0 14 -2 0zm4 0l0 -14c1,0 2,0 2,0l0 14c-1,0 -1,0 -2,0zm4 0l0 -14c1,0 2,0 3,0l0 14c-1,0 -2,0 -3,0zm4 0l1 -14 2 0 -1 14 -2 0zm4 0l1 -14c0,0 1,0 2,1l0 13c-1,0 -2,0 -3,0zm5 0l0 -13c1,0 2,0 2,0l0 13c-1,0 -2,0 -2,0zm3 0l1 -13c1,0 2,0 3,0l-1 13c-1,0 -2,0 -3,0zm5 1l1 -14c0,0 1,0 2,0l-1 14c-1,0 -1,0 -2,0zm4 0l1 -14c1,0 1,0 2,0l-1 14c0,0 -1,0 -2,0zm4 0l1 -13c1,0 2,0 2,0l-1 13c0,0 -1,0 -2,0zm4 0l1 -13c1,0 2,0 3,0l-1 14c-1,0 -2,0 -3,-1zm4 1l2 -14c0,0 1,0 2,1l-1 13c-1,0 -2,0 -3,0zm4 0l2 -13c1,0 2,0 2,0l-1 14c-1,-1 -2,-1 -3,-1zm5 1l1 -14c1,0 2,0 2,0l-1 14c-1,0 -2,0 -2,0zm4 0l1 -13c1,0 2,0 3,0l-2 13c-1,0 -2,0 -2,0zm4 1l2 -14 2 1 -2 13 -2 0zm4 0l2 -13c1,0 1,0 2,0l-2 14c0,-1 -1,-1 -2,-1zm4 1l2 -14c1,1 2,1 2,1l-2 13c0,0 -1,0 -2,0zm4 0l2 -13c1,0 2,0 3,0l-2 14c-1,0 -2,0 -3,-1zm4 1l3 -13c0,0 1,0 2,0l-3 13c0,0 -1,0 -2,0zm4 1l3 -14c0,1 1,1 2,1l-2 13c-1,0 -2,0 -3,0zm5 1l2 -14 2 1 -2 13 -2 0zm3 0l3 -13c1,0 2,0 3,0l-3 14c-1,0 -2,-1 -3,-1zm5 1l2 -13c1,0 2,0 3,0l-3 14c-1,-1 -2,-1 -2,-1zm4 1l2 -13c1,0 2,0 3,0l-3 13c-1,0 -2,0 -2,0zm4 1l3 -13c0,0 1,0 2,0l-3 13c-1,0 -1,0 -2,0zm4 1l3 -14c1,1 1,1 2,1l-3 13c-1,0 -1,0 -2,0zm4 1l3 -13c1,0 1,0 2,0l-3 13c-1,0 -1,0 -2,0zm4 1l3 -14c1,1 2,1 3,1l-4 13c-1,0 -1,0 -2,0zm4 1l3 -13c1,0 2,0 2,0l-3 13c-1,0 -1,0 -2,0zm4 1l3 -13c1,0 2,0 3,0l-4 13c-1,0 -1,0 -2,0zm4 1l4 -13c0,0 1,0 2,0l-4 13c-1,0 -1,0 -2,0zm4 1l3 -13c1,0 2,0 3,1l-4 13c0,-1 -1,-1 -2,-1zm4 1l4 -13c1,0 1,1 2,1l-4 13 -2 -1zm4 1l4 -13c1,1 1,1 2,1l-4 13c-1,0 -1,-1 -2,-1zm4 2l4 -13c1,0 1,0 2,0l-4 13 -2 0zm4 1l4 -13c1,0 2,0 2,1l-4 12c-1,0 -1,0 -2,0zm4 1l4 -13c1,0 2,1 2,1l-4 13c-1,-1 -1,-1 -2,-1zm4 1l4 -13c1,1 2,1 3,1l-5 13c-1,0 -2,0 -2,-1zm4 2l4 -13c1,0 2,0 2,1l-4 12c-1,0 -2,0 -2,0zm3 1l5 -13c1,1 2,1 3,1l-5 13c-1,0 -2,-1 -3,-1zm5 2l4 -13c1,0 2,0 2,1l-5 12c0,0 -1,0 -1,0zm3 1l5 -13c1,1 2,1 3,1l-5 13c-1,0 -2,-1 -3,-1zm4 2l5 -13c1,0 2,0 2,1l-5 12c0,0 -1,0 -2,0zm4 1l5 -13c1,1 2,1 3,1l-6 13c0,0 -1,-1 -2,-1zm4 2l5 -13c1,0 2,1 2,1l-5 12c-1,0 -1,0 -2,0zm4 1l5 -12 1 0 1 1 -5 12 -1 0 0 0c0,0 0,-1 -1,-1l0 0 0 0zm4 2l5 -13c1,1 1,1 2,1l-5 13 -2 -1zm3 1l6 -12c1,0 1,1 2,1l-5 13c-1,-1 -2,-1 -3,-2zm4 2l6 -12c1,0 1,1 2,1l-6 12c0,0 -1,0 -2,-1zm4 2l6 -12c0,0 1,0 2,1l-6 12c-1,0 -1,-1 -2,-1zm4 2l6 -13c0,1 1,1 2,1l-6 13 -2 -1zm3 1l6 -12c1,1 2,1 3,1l-6 13c-1,-1 -2,-1 -3,-2zm4 2l6 -12c1,1 2,1 2,1l-6 12 -2 -1zm4 2l6 -12c1,0 2,1 2,1l-6 12c-1,0 -1,-1 -2,-1zm4 2l6 -12 2 1 -6 12c-1,0 -2,-1 -2,-1zm3 2l6 -12c1,0 2,1 3,1l-6 12c-1,0 -2,-1 -3,-1zm4 2l7 -12 1 1 -6 12c-1,0 -1,-1 -2,-1zm3 2l7 -12c1,0 2,1 2,1l-6 12c-1,0 -2,-1 -3,-1zm4 2l7 -12c1,1 1,1 2,1l-7 12 -2 -1zm4 2l6 -12c1,1 2,1 3,2l-7 11c-1,0 -1,-1 -2,-1zm4 2l6 -12c1,1 2,1 2,1l-7 12c0,0 -1,-1 -1,-1zm3 2l7 -12c1,1 1,1 2,2l-7 11c-1,0 -1,-1 -2,-1zm4 2l7 -11 2 1 -8 11c0,0 -1,0 -1,-1zm3 2l7 -11c1,0 2,1 2,1l-7 12c0,-1 -1,-1 -2,-2zm4 3l7 -12c1,1 1,1 2,1l-7 12c-1,-1 -2,-1 -2,-1zm3 2l7 -12c1,1 2,1 3,2l-8 11c0,0 -1,-1 -2,-1zm4 2l7 -11c1,0 1,1 2,1l-7 11 -2 -1zm3 2l8 -11c0,1 1,1 2,2l-8 11c-1,-1 -1,-1 -2,-2zm4 3l7 -11c1,0 1,1 2,1l-8 11 -1 -1zm3 2l8 -11c0,0 1,1 2,1l-8 12c-1,-1 -1,-1 -2,-2zm3 3l8 -11c1,0 1,0 2,1l-8 11c0,-1 -1,-1 -2,-1zm4 2l7 -11c1,0 2,1 3,2l-8 10c-1,0 -2,-1 -2,-1zm3 2l8 -10c1,0 1,0 2,1l-8 11 -2 -2zm3 3l8 -11c1,0 2,1 3,2l-9 10c0,0 -1,-1 -2,-1zm4 2l8 -10 2 1 -8 11c-1,-1 -2,-1 -2,-2zm3 3l8 -11c1,1 2,1 2,2l-8 10c-1,0 -1,-1 -2,-1zm4 3l8 -11c0,0 1,1 1,1l-8 11 -1 -1zm2 2l9 -11c1,1 1,2 2,2l-8 11c-1,-1 -2,-2 -3,-2zm4 3l8 -11c1,1 2,1 2,2l-8 10c-1,0 -2,-1 -2,-1zm3 2l8 -10c1,0 2,1 3,2l-9 10c-1,-1 -1,-1 -2,-2zm3 3l9 -10c1,0 1,1 2,1l-9 10 -2 -1zm3 3l9 -11c1,1 1,2 2,2l-9 10c0,0 -1,-1 -2,-1zm4 2l8 -10c1,1 2,1 2,2l-9 10c0,-1 -1,-1 -1,-2zm2 3l9 -10c1,1 2,1 2,2l-9 10c0,-1 -1,-1 -2,-2zm4 3l9 -10c0,1 1,1 1,1l-9 10c0,0 -1,-1 -1,-1zm3 3l9 -10c0,0 1,1 2,2l-9 9c-1,0 -2,-1 -2,-1zm3 3l9 -10c1,0 1,1 2,1l-10 10c0,0 -1,-1 -1,-1zm3 2l9 -9c1,0 1,1 2,1l-9 10c-1,0 -2,-1 -2,-2zm3 3l9 -9c1,0 1,1 2,1l-10 10c0,-1 -1,-1 -1,-2zm3 3l9 -9c1,0 1,1 2,2l-9 9c-1,-1 -2,-1 -2,-2zm3 3l9 -9c1,0 1,1 2,1l-10 10 -1 -2zm3 3l9 -9c1,0 1,1 2,2l-10 9c0,-1 -1,-1 -1,-2zm3 3l9 -9c1,0 1,1 2,1l-10 10c0,-1 -1,-1 -1,-2zm2 3l10 -9c1,0 1,1 2,2l-10 9c0,-1 -1,-1 -2,-2zm3 3l10 -9c1,1 1,1 2,2l-10 9 -2 -2zm3 3l10 -9c0,1 1,1 2,2l-10 9c-1,-1 -1,-1 -2,-2zm3 3l10 -9c0,1 1,1 1,2l-10 9 -1 -2zm2 3l10 -9c1,1 2,2 2,2l-10 9c0,0 -1,-1 -2,-2zm3 4l11 -9c0,0 0,1 1,1l-10 9 -2 -1zm3 2l10 -8c1,1 1,1 2,2l-10 9c-1,-1 -1,-2 -2,-3zm3 4l10 -9 1 2 -10 8 -1 -1zm2 3l11 -9c0,1 1,2 1,3l-10 8c-1,-1 -1,-1 -2,-2zm3 3l11 -8c0,0 0,1 1,2l-11 8c0,-1 0,-1 -1,-2zm3 3l10 -8c1,1 1,1 2,2l-11 8c0,0 -1,-1 -1,-2zm2 4l11 -8c0,0 1,1 1,1l-10 8c-1,0 -1,-1 -2,-1zm3 3l10 -8c1,0 1,1 2,2l-11 8c0,-1 -1,-1 -1,-2zm2 4l11 -9c0,1 1,2 1,2l-10 8c-1,0 -1,-1 -2,-1zm3 2l10 -7c1,0 1,1 2,2l-11 8c0,-1 -1,-2 -1,-3zm2 4l11 -8c1,1 1,1 1,2l-11 8c0,-1 0,-1 -1,-2zm3 3l10 -8c1,1 1,2 2,3l-11 7c0,0 -1,-1 -1,-2zm2 4l11 -8c0,1 1,1 1,2l-11 8c0,-1 0,-2 -1,-2zm2 3l11 -8c1,1 1,2 2,3l-11 7c-1,-1 -1,-1 -2,-2zm3 4l11 -8c0,1 1,1 1,2l-11 7c0,0 -1,-1 -1,-1zm2 3l11 -8c1,1 1,2 2,3l-12 7c0,-1 -1,-1 -1,-2zm2 4l12 -8c0,1 0,2 1,2l-12 7c0,0 0,-1 -1,-1zm2 3l12 -7c0,0 1,1 1,2l-11 7c-1,-1 -1,-1 -2,-2zm3 4l11 -7c1,0 1,1 1,1l-11 7c0,0 -1,-1 -1,-1zm2 3l11 -7c1,1 1,2 2,2l-12 7c0,-1 -1,-1 -1,-2zm2 4l12 -7c0,1 0,1 1,2l-12 7c0,-1 0,-2 -1,-2zm2 3l12 -7c0,1 1,2 1,3l-11 6c-1,0 -1,-1 -2,-2zm2 4l12 -7 1 2 -12 7 -1 -2zm2 3l12 -6c0,0 1,1 1,2l-11 7c-1,-1 -1,-2 -2,-3zm2 4l12 -6c0,0 1,1 1,2l-12 6c0,-1 0,-1 -1,-2zm2 4l12 -7c1,1 1,2 1,3l-11 6c-1,-1 -1,-2 -2,-2zm2 3l12 -6 1 2 -12 6c0,0 0,-1 -1,-2zm2 4l12 -6c1,1 1,1 1,2l-12 6c0,-1 0,-1 -1,-2zm2 4l12 -6 1 2 -12 6c0,-1 0,-2 -1,-2zm2 3l12 -6c0,1 1,2 1,3l-12 6c0,-1 -1,-2 -1,-3zm2 4l12 -6c0,1 1,2 1,2l-12 6c0,-1 -1,-1 -1,-2zm2 4l12 -6c0,1 1,2 1,2l-12 6c-1,-1 -1,-1 -1,-2zm2 4l12 -6c0,1 0,1 1,2l-13 6c0,-1 0,-2 0,-2zm1 3l12 -5c1,0 1,1 1,2l-12 6c0,-1 0,-2 -1,-3zm2 4l12 -5c0,1 1,1 1,2l-12 5c0,0 -1,-1 -1,-2zm2 4l12 -6c0,1 1,2 1,3l-12 5c-1,-1 -1,-1 -1,-2zm1 4l13 -5 0 1 0 1 -12 5 0 -1 -1 -1zm2 3l12 -5c1,1 1,2 1,3l-12 5c0,-1 -1,-2 -1,-3zm2 5l12 -5 1 2 -13 4 0 -1zm1 3l12 -5c1,1 1,2 1,3l-12 5c0,-1 -1,-2 -1,-3zm2 4l12 -4 1 1 -13 5 0 -2zm1 4l12 -5c1,1 1,2 1,3l-12 4c0,0 -1,-1 -1,-2zm1 4l13 -5c0,1 1,2 1,2l-13 5c0,-1 0,-1 -1,-2zm2 4l12 -5c1,1 1,2 1,3l-12 4c-1,-1 -1,-1 -1,-2zm1 4l13 -4c0,0 0,1 1,2l-13 4 -1 -2zm1 4l13 -5c0,1 1,2 1,3l-13 4c0,-1 0,-2 -1,-2zm2 4l13 -4c0,0 0,1 0,2l-12 4c-1,-1 -1,-2 -1,-2zm1 4l13 -5c0,1 0,2 1,3l-13 4c0,-1 -1,-2 -1,-2zm1 4l13 -4c0,0 1,1 1,2l-13 4 -1 -2zm2 3l12 -3c1,0 1,1 1,2l-13 4c0,-1 0,-2 0,-3zm1 5l13 -4 0 2 -13 4 0 -2zm1 3l13 -3c0,1 0,2 1,3l-13 3c-1,-1 -1,-2 -1,-3zm1 5l13 -4 0 2 -12 4 -1 -2zm1 3l13 -3c0,1 0,2 1,3l-13 3c-1,-1 -1,-2 -1,-3zm1 5l13 -4c0,1 0,2 1,3l-13 3c-1,-1 -1,-2 -1,-2zm1 4l13 -4c0,1 0,2 1,3l-13 3c-1,-1 -1,-2 -1,-2zm1 4l13 -3 1 2 -13 3 -1 -2zm1 4l13 -3c0,1 0,1 1,2l-14 3c0,-1 0,-2 0,-2zm1 4l13 -3c0,1 0,1 0,2l-13 3c0,-1 0,-1 0,-2zm1 4l13 -3c0,1 0,2 0,3l-13 2c0,-1 0,-2 0,-2zm1 4l13 -3c0,1 0,2 0,3l-13 2c0,-1 0,-1 0,-2zm0 4l13 -3c1,1 1,2 1,3l-13 3c0,-1 -1,-2 -1,-3zm1 4l13 -2c0,1 0,1 1,2l-14 2c0,0 0,-1 0,-2zm1 4l13 -2c0,1 0,2 0,2l-13 3c0,-1 0,-2 0,-3zm0 4l14 -2c0,1 0,2 0,2l-13 2c0,0 0,-1 -1,-2zm1 4l13 -2c0,1 1,2 1,3l-14 2c0,-1 0,-2 0,-3zm1 5l13 -2c0,0 0,1 0,2l-13 2c0,-1 0,-2 0,-2zm0 3l13 -1c1,1 1,2 1,2l-13 2c-1,-1 -1,-2 -1,-3zm1 5l13 -2c0,1 0,2 0,2l-13 2c0,-1 0,-1 0,-2zm0 4l13 -2c1,1 1,2 1,3l-14 1c0,-1 0,-1 0,-2zm1 4l13 -1c0,0 0,1 0,2l-13 1c0,-1 0,-1 0,-2zm0 4l13 -1c0,1 1,2 1,2l-14 2c0,-1 0,-2 0,-3zm1 4l13 -1c0,1 0,2 0,2l-13 1c0,0 0,-1 0,-2zm0 4l13 -1c0,1 0,2 0,3l-13 1c0,-1 0,-2 0,-3zm0 5l14 -1c0,0 0,1 0,2l-14 1c0,-1 0,-2 0,-2zm0 4l14 -1c0,1 0,2 0,2l-13 1c0,-1 -1,-2 -1,-2zm1 4l13 -1c0,1 0,2 0,2l-13 1c0,-1 0,-1 0,-2zm0 4l13 -1c0,1 0,2 0,3l-13 0c0,0 0,-1 0,-2zm0 4l13 0c0,0 0,1 1,2l-14 0c0,0 0,-1 0,-2zm0 4l14 0c0,1 0,2 0,2l-14 1c0,-1 0,-2 0,-3zm0 5l14 -1c0,1 0,2 0,2l-14 1c0,-1 0,-1 0,-1l0 -1zm0 3l14 0c0,1 0,2 0,3l-14 0c0,-1 0,-2 0,-3zm35 6l-19 0c0,-9 0,-19 -1,-28l19 -1c1,10 1,19 1,29zm-19 1l19 0c0,9 0,18 -1,26l-19 -1c1,-8 1,-16 1,-25zm-1 27l19 1c0,10 -1,20 -2,30l-19 -2c1,-10 2,-19 2,-29zm-2 30l19 3c-1,8 -2,16 -4,24l-19 -4c2,-7 3,-15 4,-23zm-4 25l19 3c-2,10 -4,20 -6,30l-19 -5c3,-9 4,-18 6,-28zm-6 30l19 4c-2,8 -4,16 -6,24l-19 -5c2,-8 4,-15 6,-23zm-6 24l18 6c-2,9 -5,19 -9,28l-18 -6c3,-9 6,-19 9,-28zm-10 29l19 7c-3,7 -6,15 -9,22l-18 -7c3,-7 6,-14 8,-22zm-9 24l18 7c0,1 -1,3 -1,4 -4,8 -7,16 -11,23l-17 -8c3,-7 7,-15 10,-23 0,-1 1,-2 1,-3zm-12 28l17 8c-3,7 -7,14 -11,22l-17 -10c4,-7 8,-13 11,-20zm-12 22l17 9c-5,9 -10,17 -15,26l-16 -10c5,-9 10,-17 14,-25zm-15 26l16 10c-4,7 -9,14 -13,20l-16 -11c4,-6 9,-12 13,-19zm-14 21l16 11c-6,8 -12,16 -18,24l-15 -12c6,-8 11,-15 17,-23zm-19 24l15 12c-5,7 -10,13 -15,19l-15 -13c6,-6 11,-12 15,-18zm-16 19l15 13c-7,7 -14,15 -21,21l0 1 -14 -14 1 0c6,-7 13,-14 19,-21zm-21 22l14 14c-6,6 -12,11 -18,17l-13 -15c6,-5 12,-10 17,-16zm-18 18l13 14c-8,7 -15,13 -23,19l-12 -15c7,-6 15,-12 22,-18zm-23 19l12 15c-7,5 -13,10 -20,15l-11 -16c6,-4 13,-9 19,-14zm-20 15l11 16c-8,6 -17,11 -25,17l-10 -17c8,-5 16,-10 24,-16zm-26 17l10 17c-6,4 -13,8 -20,12l-10 -17c7,-4 14,-8 20,-12zm-21 13l9 17c-9,5 -18,9 -27,14l-8 -18c9,-4 17,-8 26,-13zm-28 14l9 17c-7,4 -14,7 -21,10l-1 0 -8 -18 1 0c7,-3 14,-6 20,-9zm-22 10l7 18c-9,4 -19,7 -28,11l-6 -19c9,-3 18,-6 27,-10zm-29 11l6 18c-7,3 -15,5 -23,8l-5 -19c7,-2 15,-5 22,-7zm-24 8l5 18c-9,3 -19,5 -28,8l-5 -19c10,-2 19,-5 28,-7zm-29 7l4 19c-8,2 -16,3 -24,5l-3 -19c7,-2 15,-3 23,-5zm-25 5l3 19c-10,2 -20,3 -29,4l-3 -19c10,-1 19,-3 29,-4zm-30 4l2 19c-8,1 -16,2 -24,2l-2 -19c8,0 16,-1 24,-2zm-25 2l1 19c-10,1 -19,1 -29,1l0 -19c9,0 19,0 28,-1zm-30 1l0 19c-8,0 -17,0 -25,0l1 -20c8,1 16,1 24,1zm-26 -1l-1 19c-10,0 -20,-1 -30,-2l3 -19c9,1 19,2 28,2zm-30 -2l-2 19c-8,-1 -16,-2 -24,-4l3 -19c7,2 15,3 23,4zm-25 -4l-3 19c-10,-2 -20,-3 -30,-6l5 -19c9,3 18,4 28,6zm-30 -6l-4 19c-8,-2 -16,-4 -24,-6l6 -19c7,2 15,4 22,6zm-24 -6l-6 18c-9,-2 -19,-5 -28,-9l6 -18c9,3 19,6 28,9zm-29 -10l-7 19c-7,-3 -15,-6 -22,-9l7 -18c7,3 14,6 22,8zm-24 -9l-7 18c-1,0 -3,-1 -4,-1 -8,-4 -16,-7 -23,-11l8 -17c8,3 15,7 23,10 1,0 2,1 3,1zm-27 -12l-9 17c-7,-3 -14,-7 -21,-11l9 -17c7,4 14,8 21,11zm-23 -12l-9 17c-9,-5 -17,-10 -26,-15l11 -16c8,5 16,10 24,14zm-26 -15l-10 16c-7,-4 -14,-9 -20,-13l11 -16c6,4 13,9 19,13zm-21 -14l-11 16c-8,-6 -16,-12 -24,-18l12 -15c8,6 15,11 23,17zm-24 -19l-12 16c-6,-6 -13,-11 -19,-16l13 -15c6,6 12,11 18,15zm-19 -16l-13 15c-7,-7 -14,-14 -21,-21l-1 0 14 -14 0 1c7,6 14,13 21,19zm-22 -21l-14 14c-6,-6 -11,-12 -17,-18l15 -13c5,6 10,12 16,17zm-18 -18l-14 13c-7,-8 -13,-15 -19,-23l15 -12c6,7 12,15 18,22zm-19 -23l-15 12c-5,-7 -10,-13 -15,-20l16 -11c4,6 9,13 14,19zm-15 -20l-16 11c-6,-8 -11,-17 -17,-25l17 -10c5,8 10,16 16,24zm-17 -26l-16 11c-5,-7 -9,-14 -13,-21l17 -10c4,7 8,14 12,20zm-13 -21l-17 9c-5,-9 -9,-18 -13,-27l17 -8c4,9 9,17 13,26zm-14 -28l-17 9c-4,-7 -7,-14 -10,-21l0 -1 18 -8 0 1c3,7 6,14 9,20zm-10 -22l-18 7c-4,-9 -7,-18 -11,-28l19 -6c3,9 6,18 10,27zm-11 -29l-18 6c-3,-7 -5,-15 -8,-23l19 -5c2,7 5,15 7,22zm-7 -24l-19 6c-3,-10 -5,-20 -7,-29l18 -5c3,10 5,19 8,28zm-8 -29l-19 4c-2,-8 -3,-16 -5,-24l20 -3c1,7 2,15 4,23zm-5 -25l-19 3c-2,-10 -3,-19 -4,-29l19 -2c1,9 3,19 4,28zm-4 -30l-19 2c-1,-8 -2,-16 -2,-24l19 -1c1,7 1,15 2,23zm-2 -25l-19 1c-1,-10 -1,-19 -1,-29l19 0c0,10 1,19 1,28zm-1 -29l-19 0c0,-9 0,-17 1,-26l19 1c0,8 -1,16 -1,25zm1 -27l-19 -1c0,-10 1,-20 2,-30l19 3c-1,9 -1,19 -2,28zm3 -30l-20 -2c1,-8 2,-16 4,-24l19 3c-1,7 -2,15 -3,23zm3 -25l-19 -3c2,-10 4,-20 6,-29l19 4c-2,9 -4,19 -6,28zm6 -30l-19 -4c2,-8 4,-16 6,-24l19 6c-2,7 -4,15 -6,22zm6 -24l-18 -5c2,-10 5,-19 9,-29l18 7c-3,9 -6,18 -9,27zm10 -29l-19 -7c3,-7 6,-15 9,-22l18 7c-3,7 -6,15 -8,22zm9 -24l-18 -7c0,-1 1,-2 1,-4 4,-8 7,-15 11,-23l17 8c-3,8 -7,15 -10,23 0,1 -1,2 -1,3zm12 -27l-17 -9c3,-7 7,-14 11,-21l17 9c-4,7 -7,14 -11,21zm12 -23l-17 -9c5,-9 10,-17 15,-26l16 11c-5,8 -10,16 -14,24zm15 -26l-16 -10c4,-7 9,-14 13,-20l16 11c-4,6 -9,13 -13,19zm14 -21l-16 -11c6,-8 12,-16 18,-24l16 12c-6,8 -12,16 -18,23zm19 -24l-15 -12c5,-6 10,-13 15,-19l15 13c-5,6 -10,12 -15,18zm16 -19l-15 -13c7,-7 14,-14 21,-21l0 -1 14 14 -1 0c-6,7 -13,14 -19,21zm21 -22l-14 -14c6,-6 12,-11 18,-17l13 15c-6,5 -12,10 -17,16zm18 -17l-13 -15c8,-6 15,-13 23,-19l12 15c-7,6 -15,12 -22,19zm24 -20l-13 -15c7,-5 13,-10 20,-15l11 16c-6,4 -12,9 -18,14zm20 -15l-12 -16c8,-6 17,-11 25,-16l10 16c-8,5 -16,10 -23,16zm25 -17l-10 -16c6,-5 13,-9 21,-13l9 17c-7,4 -14,8 -20,12zm22 -13l-10 -17c9,-4 18,-9 27,-13l8 17c-9,4 -17,9 -25,13zm27 -14l-9 -17c7,-3 14,-7 21,-10l1 0 8 18 -1 0c-7,3 -14,6 -20,9zm23 -10l-8 -18c9,-4 19,-7 28,-10l6 18c-9,3 -18,6 -26,10zm28 -11l-6 -18c7,-3 15,-5 23,-7l5 18c-7,2 -15,5 -22,7zm24 -7l-5 -19c9,-3 19,-5 28,-7l5 19c-10,2 -19,4 -28,7zm29 -8l-4 -19c8,-2 16,-3 24,-4l3 19c-7,1 -15,2 -23,4zm25 -5l-3 -19c10,-1 19,-3 29,-4l2 19c-9,1 -19,3 -28,4zm30 -4l-2 -19c8,-1 16,-2 24,-2l1 19c-7,1 -15,1 -23,2zm25 -2l-1 -19c10,-1 19,-1 29,-1l0 19c-10,0 -19,1 -28,1zm29 -1l0 -19c9,0 18,0 26,1l-1 19c-8,0 -16,-1 -25,-1zm27 1l1 -19c10,0 20,1 30,2l-3 19c-9,-1 -19,-1 -28,-2zm30 3l2 -20c8,1 16,2 24,4l-3 19c-7,-1 -15,-2 -23,-3zm25 3l3 -19c10,2 20,4 30,6l-5 19c-9,-2 -19,-4 -28,-6zm30 6l4 -19c8,2 16,4 24,6l-6 19c-7,-2 -14,-4 -22,-6zm24 6l5 -18c10,3 20,6 29,9l-6 18c-9,-3 -19,-6 -28,-9zm29 10l7 -19c7,3 15,6 22,9l-7 18c-7,-3 -14,-6 -22,-8zm24 9l7 -18c1,0 3,1 4,1 8,4 16,7 23,11l-8 17c-8,-3 -15,-7 -23,-10 -1,0 -2,-1 -3,-1zm27 12l9 -17c7,3 14,7 22,11l-10 17c-7,-4 -14,-7 -21,-11zm23 12l9 -17c9,5 17,10 26,15l-11 16c-8,-5 -16,-10 -24,-14zm26 15l10 -16c7,4 14,9 20,13l-11 16c-6,-4 -12,-9 -19,-13zm21 14l11 -15c8,5 16,11 24,18l-12 15c-8,-6 -15,-12 -23,-18zm24 19l12 -15c6,5 13,10 19,15l-13 15c-6,-5 -12,-10 -18,-15zm19 16l13 -14c7,6 14,13 21,20l1 0 -14 14 0 -1c-7,-6 -14,-13 -21,-19zm22 21l14 -14c6,6 11,12 17,18l-15 13c-5,-6 -10,-12 -16,-17zm18 18l14 -13c7,8 13,15 19,23l-15 12c-6,-7 -12,-15 -18,-22zm19 23l15 -11c5,6 10,12 15,19l-16 11c-4,-6 -9,-12 -14,-19zm15 21l16 -12c6,8 11,17 17,25l-17 10c-5,-8 -10,-16 -16,-23zm17 25l17 -10c4,7 8,14 12,21l-17 9c-4,-7 -8,-14 -12,-20zm13 22l17 -10c5,9 9,18 13,27l-17 8c-4,-9 -8,-17 -13,-25zm14 27l17 -9c4,7 7,14 10,21l0 1 -18 8 0 -1c-3,-7 -6,-14 -9,-20zm10 23l18 -8c4,9 7,19 11,28l-19 6c-3,-9 -6,-18 -10,-26zm11 28l18 -6c3,7 5,15 8,23l-19 5c-2,-7 -4,-15 -7,-22zm8 24l18 -5c3,9 5,19 7,29l-18 4c-2,-10 -5,-19 -7,-28zm7 29l19 -4c2,8 3,16 5,24l-19 3c-2,-7 -3,-15 -5,-23zm5 25l19 -3c2,10 3,20 4,29l-19 3c-1,-10 -2,-19 -4,-29zm4 30l19 -2c1,8 2,16 2,24l-19 2c0,-8 -1,-16 -2,-24zm-799 327c0,0 -1,-1 -1,-1 0,-2 -2,-3 -2,-4 -1,0 -1,0 -1,0 0,-1 0,-1 1,-1 0,0 2,-1 2,-4 0,0 1,-1 1,-1 1,0 1,1 1,1 0,3 3,4 3,4 0,0 0,0 0,1 0,0 0,0 0,0 0,0 -3,2 -3,4 0,0 0,1 -1,1zm-1 -5c0,0 1,0 1,1 1,-1 1,-1 2,-1 -1,-1 -1,-1 -2,-2 0,1 -1,1 -1,2zm217 -465c-1,0 -1,-1 -1,-1 0,-3 -3,-4 -3,-4 0,0 0,0 0,-1 0,0 0,0 0,0 0,0 3,-1 3,-4 0,0 0,-1 1,-1 0,0 0,1 0,1 0,3 3,4 3,4 0,0 1,0 1,0 0,1 -1,1 -1,1 0,0 -3,1 -3,4 0,0 0,1 0,1zm-2 -6c1,1 1,1 2,2 0,-1 0,-1 1,-2 -1,0 -1,0 -1,-1 -1,1 -1,1 -2,1zm-117 61c0,0 -1,-1 -1,-1 0,-2 -2,-3 -2,-4 0,0 -1,0 -1,0 0,-1 1,-1 1,-1 0,0 2,-1 2,-4 0,0 1,0 1,0 1,0 1,0 1,0 0,3 3,4 3,4 0,0 0,0 0,1 0,0 0,0 0,0 0,0 -3,2 -3,4 0,0 0,1 -1,1zm-1 -5c0,0 1,0 1,1 1,-1 1,-1 2,-1 -1,-1 -1,-1 -2,-2 0,1 -1,1 -1,2zm-40 -56c0,0 -1,-1 -1,-1 0,-3 -2,-4 -2,-4 0,0 -1,0 -1,-1 0,0 1,0 1,0 0,0 2,-2 2,-4 0,0 1,-1 1,-1 1,0 1,1 1,1 0,2 3,3 3,4 0,0 0,0 0,0 0,1 0,1 0,1 0,0 -3,1 -3,4 0,0 0,1 -1,1zm-1 -6c0,1 1,1 1,2 1,-1 1,-1 2,-2 -1,0 -1,0 -2,-1 0,1 -1,1 -1,1zm-12 -31c-1,0 -1,0 -1,-1 0,-2 -3,-3 -3,-3 0,0 0,-1 0,-1 0,0 0,-1 0,-1 0,0 3,-1 3,-3 0,-1 0,-1 1,-1 0,0 1,0 1,1 0,2 2,3 2,3 0,0 1,1 1,1 0,0 -1,1 -1,1 0,0 -2,1 -2,3 0,1 -1,1 -1,1zm-2 -5c1,0 1,1 2,1 0,0 1,-1 1,-1 0,0 -1,-1 -1,-1 -1,0 -1,1 -2,1zm57 -25c-1,0 -1,-1 -1,-1 0,-2 -3,-4 -3,-4 0,0 0,0 0,0 0,-1 0,-1 0,-1 0,0 3,-1 3,-4 0,0 0,-1 1,-1 0,0 1,1 1,1 0,3 2,4 2,4 1,0 1,0 1,1 0,0 0,0 -1,0 0,0 -2,1 -2,4 0,0 -1,1 -1,1zm-2 -5c1,0 1,0 2,1 0,-1 1,-1 1,-1 0,-1 -1,-1 -1,-2 -1,1 -1,1 -2,2zm325 -86c-1,0 -1,0 -1,-1 0,-2 -3,-3 -3,-3 0,0 0,0 0,-1 0,0 0,-1 0,-1 0,0 3,-1 3,-3 0,-1 0,-1 1,-1 0,0 1,0 1,1 0,2 2,3 2,3 1,1 1,1 1,1 0,1 0,1 -1,1 0,0 -2,1 -2,3 0,1 -1,1 -1,1zm-2 -5c1,1 1,1 2,2 0,-1 1,-1 1,-2 0,0 -1,-1 -1,-1 -1,0 -1,1 -2,1zm-248 -46c-1,0 -1,0 -1,-1 0,-2 -3,-3 -3,-3 0,0 0,-1 0,-1 0,0 0,-1 0,-1 0,0 3,-1 3,-3 0,-1 0,-1 1,-1 0,0 0,0 0,1 0,2 3,3 3,3 0,0 0,1 0,1 0,0 0,1 0,1 0,0 -3,1 -3,3 0,1 0,1 0,1zm-2 -5c1,0 1,1 2,2 0,-1 0,-2 1,-2 -1,0 -1,-1 -1,-1 -1,0 -1,1 -2,1zm-90 731c-1,0 -1,0 -1,-1 0,-2 -3,-3 -3,-3 0,0 0,-1 0,-1 0,0 0,-1 0,-1 0,0 3,-1 3,-3 0,-1 0,-1 1,-1 0,0 1,0 1,1 0,2 2,3 2,3 0,0 1,1 1,1 0,0 -1,1 -1,1 0,0 -2,1 -2,3 0,1 -1,1 -1,1zm-2 -5c1,0 1,1 2,1 0,0 1,-1 1,-1 0,-1 -1,-1 -1,-2 -1,1 -1,2 -2,2zm475 -46c0,0 -1,-1 -1,-1 0,-2 -2,-4 -2,-4 -1,0 -1,0 -1,0 0,-1 0,-1 1,-1 0,0 2,-1 2,-4 0,0 1,-1 1,-1 1,0 1,1 1,1 0,3 2,4 3,4 0,0 0,0 0,1 0,0 0,0 0,0 -1,0 -3,1 -3,4 0,0 0,1 -1,1zm-1 -5c0,0 1,0 1,1 1,-1 1,-1 2,-1 -1,-1 -1,-1 -2,-2 0,1 -1,1 -1,2zm36 44c0,0 0,0 0,-1 0,-2 -3,-3 -3,-3 0,0 0,-1 0,-1 0,0 0,-1 0,-1 0,0 3,-1 3,-3 0,-1 0,-1 0,-1 1,0 1,0 1,1 0,2 3,3 3,3 0,0 0,1 0,1 0,0 0,1 0,1 0,0 -3,1 -3,3 0,1 0,1 -1,1zm-1 -5c1,0 1,1 1,1 1,0 1,-1 2,-1 -1,0 -1,-1 -2,-1 0,0 0,1 -1,1zm-19 30c-1,0 -1,0 -1,-1 0,-2 -3,-3 -3,-3 0,0 0,-1 0,-1 0,0 0,-1 0,-1 1,0 3,-1 3,-3 0,-1 0,-1 1,-1 0,0 1,0 1,1 0,2 2,3 2,3 1,1 1,1 1,1 0,0 0,1 -1,1 0,0 -2,1 -2,3 0,1 -1,1 -1,1zm-2 -5c1,0 1,1 2,1 0,0 1,-1 1,-1 0,0 -1,-1 -1,-1 -1,0 -1,1 -2,1zm-88 77c0,0 -1,0 -1,-1 0,-2 -2,-3 -2,-3 -1,0 -1,-1 -1,-1 0,0 0,-1 1,-1 0,0 2,-1 2,-3 0,-1 1,-1 1,-1 1,0 1,0 1,1 0,2 2,3 2,3 1,0 1,1 1,1 0,0 0,1 -1,1 0,0 -2,1 -2,3 0,1 0,1 -1,1zm-1 -5c0,0 1,1 1,2 1,-1 1,-2 1,-2 0,0 -1,-1 -1,-1 0,0 -1,1 -1,1zm-196 20c-1,0 -1,0 -1,-1 0,-2 -2,-3 -3,-3 0,0 0,-1 0,-1 0,0 0,-1 0,-1 1,0 3,-1 3,-3 0,-1 0,-1 1,-1 0,0 1,0 1,1 0,2 2,3 2,3 1,0 1,1 1,1 0,0 0,1 -1,1 0,0 -2,1 -2,3 0,1 -1,1 -1,1zm-2 -5c1,0 1,1 2,1 0,0 1,-1 1,-1 0,-1 -1,-1 -1,-2 -1,1 -1,2 -2,2zm-66 13c0,0 -1,0 -1,-1 0,-2 -2,-3 -2,-3 -1,0 -1,-1 -1,-1 0,0 0,-1 1,-1 0,0 2,-1 2,-3 0,-1 1,-1 1,-1 1,0 1,0 1,1 0,2 3,3 3,3 0,0 0,1 0,1 0,0 0,1 0,1 0,0 -3,1 -3,3 0,1 0,1 -1,1zm-1 -5c0,0 1,1 1,1 1,0 1,-1 2,-1 -1,0 -1,-1 -2,-2 0,1 -1,2 -1,2zm-93 9c-1,0 -1,0 -1,0 0,-3 -3,-4 -3,-4 0,0 0,0 0,-1 0,0 0,0 0,-1 0,0 3,-1 3,-3 0,0 0,-1 1,-1 0,0 1,1 1,1 0,2 2,3 2,3 0,1 1,1 1,1 0,1 -1,1 -1,1 0,0 -2,1 -2,4 0,0 -1,0 -1,0zm-2 -5c1,1 1,1 2,2 0,-1 1,-1 1,-2 0,0 -1,-1 -1,-1 -1,0 -1,1 -2,1zm-94 -89c-1,0 -1,-1 -1,-1 0,-3 -2,-4 -2,-4 -1,0 -1,0 -1,-1 0,0 0,0 1,0 0,0 2,-1 2,-4 0,0 0,-1 1,-1 1,0 1,1 1,1 0,2 2,4 2,4 1,0 1,0 1,0 0,1 0,1 -1,1 0,0 -2,1 -2,4 0,0 -1,1 -1,1zm-1 -6c0,1 1,1 1,2 0,-1 1,-1 1,-2 0,0 -1,0 -1,-1 0,1 -1,1 -1,1zm-91 -92c0,0 -1,0 -1,-1 0,-2 -2,-3 -2,-3 -1,0 -1,0 -1,-1 0,0 0,-1 1,-1 0,0 2,-1 2,-3 0,-1 1,-1 1,-1 1,0 1,0 1,1 0,2 2,3 3,3 0,1 0,1 0,1 0,1 0,1 0,1 -1,0 -3,1 -3,3 0,1 0,1 -1,1zm-1 -5c0,1 1,1 1,2 1,-1 1,-1 1,-2 0,0 0,-1 -1,-1 0,0 -1,1 -1,1zm124 -66c-1,0 -1,0 -1,-1 0,-2 -2,-3 -2,-3 -1,0 -1,0 -1,-1 0,0 0,-1 1,-1 0,0 2,-1 2,-3 0,-1 0,-1 1,-1 1,0 1,0 1,1 0,2 2,3 2,3 1,1 1,1 1,1 0,1 0,1 -1,1 0,0 -2,1 -2,3 0,1 0,1 -1,1zm-1 -5c0,1 1,1 1,2 0,-1 1,-1 1,-2 0,0 -1,-1 -1,-1 0,0 -1,1 -1,1zm-41 -65c0,0 0,0 0,0 0,-3 -3,-4 -3,-4 0,0 -1,0 -1,-1 0,0 1,0 1,0 0,0 3,-2 3,-4 0,0 0,-1 0,-1 1,0 1,1 1,1 0,2 3,3 3,4 0,0 0,0 0,0 0,1 0,1 0,1 0,0 -3,1 -3,4 0,0 0,0 -1,0zm-1 -5c0,1 1,1 1,2 1,-1 1,-1 2,-2 -1,0 -1,0 -2,-1 0,1 -1,1 -1,1zm122 -39c0,0 -1,0 -1,-1 0,-2 -2,-3 -2,-3 -1,0 -1,0 -1,-1 0,0 0,0 1,-1 0,0 2,-1 2,-3 0,-1 1,-1 1,-1 1,0 1,0 1,1 0,2 2,3 3,3 0,1 0,1 0,1 0,1 0,1 0,1 -1,0 -3,1 -3,3 0,1 0,1 -1,1zm-1 -5c0,1 1,1 1,2 1,-1 1,-1 2,-2 -1,0 -1,-1 -2,-1 0,0 -1,1 -1,1zm33 26c-1,0 -1,0 -1,0 0,-3 -3,-4 -3,-4 0,0 0,0 0,-1 0,0 0,0 0,0 0,0 3,-2 3,-4 0,0 0,-1 1,-1 0,0 1,1 1,1 0,2 2,3 2,4 1,0 1,0 1,0 0,1 0,1 -1,1 0,0 -2,1 -2,4 0,0 -1,0 -1,0zm-2 -5c1,1 1,1 2,2 0,-1 1,-1 1,-2 0,0 -1,0 -1,-1 -1,1 -1,1 -2,1zm49 14c-1,0 -1,0 -1,-1 0,-2 -3,-3 -3,-3 0,0 0,-1 0,-1 0,0 0,-1 0,-1 0,0 3,-1 3,-3 0,-1 0,-1 1,-1 0,0 0,0 0,1 0,2 3,3 3,3 0,0 1,1 1,1 0,0 -1,1 -1,1 0,0 -3,1 -3,3 0,1 0,1 0,1zm-2 -5c1,0 1,1 2,1 0,0 0,-1 1,-1 -1,-1 -1,-1 -1,-2 -1,1 -1,2 -2,2zm145 85c-1,0 -1,-1 -1,-1 0,-2 -2,-4 -2,-4 -1,0 -1,0 -1,0 0,-1 0,-1 1,-1 0,0 2,-1 2,-4 0,0 0,-1 1,-1 0,0 1,1 1,1 0,3 2,4 2,4 1,0 1,0 1,1 0,0 0,0 -1,0 0,0 -2,1 -2,4 0,0 -1,1 -1,1zm-1 -5c0,0 1,0 1,1 0,-1 1,-1 1,-1 0,-1 -1,-1 -1,-2 0,1 -1,1 -1,2zm76 -46c0,0 -1,0 -1,-1 0,-2 -2,-3 -2,-3 -1,0 -1,0 -1,-1 0,0 0,0 1,-1 0,0 2,-1 2,-3 0,-1 1,-1 1,-1 1,0 1,0 1,1 0,2 3,3 3,3 0,1 0,1 0,1 0,1 0,1 0,1 0,0 -3,1 -3,3 0,1 0,1 -1,1zm-1 -5c0,1 1,1 1,2 1,-1 1,-1 2,-2 -1,0 -1,-1 -2,-1 0,0 -1,1 -1,1zm-7 27c-1,0 -1,-1 -1,-1 0,-2 -3,-3 -3,-3 0,-1 0,-1 0,-1 0,-1 0,-1 0,-1 0,0 3,-1 3,-4 0,0 0,0 1,0 0,0 1,0 1,0 0,3 2,4 2,4 0,0 1,0 1,1 0,0 -1,0 -1,1 0,0 -2,1 -2,3 0,0 -1,1 -1,1zm-2 -5c1,0 1,1 2,1 0,0 1,-1 1,-1 0,-1 -1,-1 -1,-2 -1,1 -1,1 -2,2zm-93 -71c0,0 -1,-1 -1,-1 0,-3 -2,-4 -2,-4 0,0 -1,0 -1,-1 0,0 1,0 1,0 0,0 2,-1 2,-4 0,0 1,-1 1,-1 1,0 1,1 1,1 0,2 3,4 3,4 0,0 0,0 0,0 0,1 0,1 0,1 0,0 -3,1 -3,4 0,0 0,1 -1,1zm-1 -6c0,1 1,1 1,2 1,-1 1,-1 2,-2 -1,0 -1,0 -2,-1 0,1 -1,1 -1,1zm-36 24c-1,0 -1,0 -1,-1 0,-2 -2,-3 -3,-3 0,0 0,0 0,-1 0,0 0,0 0,-1 1,0 3,-1 3,-3 0,-1 0,-1 1,-1 0,0 1,0 1,1 0,2 2,3 2,3 1,1 1,1 1,1 0,1 0,1 -1,1 0,0 -2,1 -2,3 0,1 -1,1 -1,1zm-1 -5c0,1 1,1 1,2 0,-1 1,-1 1,-2 0,0 -1,-1 -1,-1 0,0 -1,1 -1,1zm-49 -243c0,0 -1,-1 -1,-1 0,-3 -2,-4 -2,-4 -1,0 -1,0 -1,-1 0,0 0,0 1,0 0,0 2,-1 2,-4 0,0 1,-1 1,-1 1,0 1,1 1,1 0,3 3,4 3,4 0,0 0,0 0,0 0,1 0,1 0,1 0,0 -3,1 -3,4 0,0 0,1 -1,1zm-1 -6c0,1 1,1 1,2 1,-1 1,-1 2,-2 -1,0 -1,0 -2,-1 0,1 -1,1 -1,1zm12 -36c0,0 -1,-1 -1,-1 0,-2 -2,-4 -2,-4 -1,0 -1,0 -1,0 0,-1 0,-1 1,-1 0,0 2,-1 2,-4 0,0 1,-1 1,-1 1,0 1,1 1,1 0,3 3,4 3,4 0,0 0,0 0,1 0,0 0,0 0,0 0,0 -3,1 -3,4 0,0 0,1 -1,1zm-1 -5c0,0 1,0 1,1 1,-1 1,-1 2,-1 -1,-1 -1,-1 -2,-2 0,1 -1,1 -1,2zm217 103c0,0 -1,-1 -1,-1 0,-2 -2,-3 -2,-3 -1,-1 -1,-1 -1,-1 0,-1 0,-1 1,-1 0,0 2,-1 2,-3 0,-1 1,-1 1,-1 1,0 1,0 1,1 0,2 3,3 3,3 0,0 0,0 0,1 0,0 0,0 0,1 0,0 -3,1 -3,3 0,0 0,1 -1,1zm-1 -5c0,0 1,1 1,1 1,0 1,-1 2,-1 -1,-1 -1,-1 -2,-2 0,1 -1,1 -1,2zm-47 171c-1,0 -1,0 -1,-1 0,-2 -3,-3 -3,-3 0,0 0,-1 0,-1 0,0 0,-1 0,-1 0,0 3,-1 3,-3 0,-1 0,-1 1,-1 0,0 1,0 1,1 0,2 2,3 2,3 0,0 1,1 1,1 0,0 -1,1 -1,1 0,0 -2,1 -2,3 0,1 -1,1 -1,1zm-2 -5c1,0 1,1 2,1 0,0 0,-1 1,-1 -1,0 -1,-1 -1,-1 -1,0 -1,1 -2,1zm79 11c-1,0 -1,0 -1,-1 0,-2 -3,-3 -3,-3 0,-1 0,-1 0,-1 0,-1 0,-1 0,-1 0,0 3,-1 3,-3 0,-1 0,-1 1,-1 0,0 1,0 1,1 0,2 2,3 2,3 0,0 1,0 1,1 0,0 -1,1 -1,1 0,0 -2,1 -2,3 0,1 -1,1 -1,1zm-2 -5c1,0 1,1 2,1 0,0 1,-1 1,-1 0,-1 -1,-1 -1,-2 -1,1 -1,1 -2,2zm62 -15c0,0 0,0 0,-1 0,-2 -3,-3 -3,-3 0,-1 0,-1 0,-1 0,-1 0,-1 0,-1 0,0 3,-1 3,-3 0,-1 0,-1 0,-1 1,0 1,0 1,1 0,2 3,3 3,3 0,0 0,0 0,1 0,0 0,1 0,1 0,0 -3,1 -3,3 0,1 0,1 -1,1zm-1 -5c1,0 1,1 1,1 1,0 1,-1 2,-1 -1,-1 -1,-1 -2,-2 0,1 0,1 -1,2zm-97 -217c0,0 0,0 0,-1 0,-2 -3,-3 -3,-3 0,-1 -1,-1 -1,-1 0,-1 1,-1 1,-1 0,0 3,-1 3,-3 0,-1 0,-1 0,-1 1,0 1,0 1,1 0,2 3,3 3,3 0,0 0,0 0,1 0,0 0,1 0,1 0,0 -3,1 -3,3 0,1 0,1 -1,1zm-1 -5c0,0 1,1 1,1 1,0 1,-1 2,-1 -1,-1 -1,-1 -2,-2 0,1 0,1 -1,2zm66 -71c0,0 0,0 0,0 0,-3 -3,-4 -3,-4 0,0 -1,0 -1,-1 0,0 1,0 1,0 0,0 3,-2 3,-4 0,0 0,-1 0,-1 1,0 1,1 1,1 0,2 3,3 3,4 0,0 0,0 0,0 0,1 0,1 0,1 0,0 -3,1 -3,4 0,0 0,0 -1,0zm-1 -5c0,1 1,1 1,2 1,-1 1,-1 2,-2 -1,0 -1,0 -2,-1 0,1 0,1 -1,1zm21 85c-1,0 -1,-1 -1,-1 0,-3 -2,-4 -3,-4 0,0 0,0 0,-1 0,0 0,0 0,0 1,0 3,-1 3,-4 0,0 0,-1 1,-1 0,0 1,1 1,1 0,2 2,4 2,4 1,0 1,0 1,0 0,1 0,1 -1,1 0,0 -2,1 -2,4 0,0 -1,1 -1,1zm-2 -6c1,1 1,1 2,2 0,-1 1,-1 1,-2 0,0 -1,0 -1,-1 -1,1 -1,1 -2,1zm127 84c0,0 0,-1 0,-1 0,-3 -3,-4 -3,-4 0,0 -1,0 -1,-1 0,0 1,0 1,0 0,0 3,-1 3,-4 0,0 0,-1 0,-1 1,0 1,1 1,1 0,2 3,4 3,4 0,0 0,0 0,0 0,1 0,1 0,1 0,0 -3,1 -3,4 0,0 0,1 -1,1zm-1 -6c1,1 1,1 1,2 1,-1 1,-1 2,-2 -1,0 -1,0 -2,-1 0,1 0,1 -1,1zm28 326c-1,0 -1,-1 -1,-1 0,-3 -3,-4 -3,-4 0,0 0,0 0,-1 0,0 0,0 0,0 0,0 3,-1 3,-4 0,0 0,-1 1,-1 0,0 1,1 1,1 0,2 2,4 2,4 0,0 1,0 1,0 0,1 -1,1 -1,1 0,0 -2,1 -2,4 0,0 -1,1 -1,1zm-2 -6c1,1 1,1 2,2 0,-1 1,-1 1,-2 0,0 -1,0 -1,-1 -1,1 -1,1 -2,1zm-61 -67c0,0 -1,0 -1,0 0,-3 -2,-4 -2,-4 0,0 -1,0 -1,-1 0,0 1,0 1,0 0,0 2,-2 2,-4 0,0 1,-1 1,-1 1,0 1,1 1,1 0,2 3,4 3,4 0,0 0,0 0,0 0,1 0,1 0,1 0,0 -3,1 -3,4 0,0 0,0 -1,0zm-1 -5c0,1 1,1 1,2 1,-1 1,-1 2,-2 -1,0 -1,0 -2,-1 0,1 -1,1 -1,1zm-206 154c-1,0 -1,0 -1,-1 0,-2 -2,-3 -3,-3 0,0 0,-1 0,-1 0,0 0,-1 0,-1 1,0 3,-1 3,-3 0,-1 0,-1 1,-1 0,0 1,0 1,1 0,2 2,3 2,3 1,0 1,1 1,1 0,0 0,1 -1,1 0,0 -2,1 -2,3 0,1 -1,1 -1,1zm-1 -5c0,0 1,1 1,1 0,0 1,-1 1,-1 0,0 -1,-1 -1,-1 0,0 -1,1 -1,1zm-216 -10c0,0 -1,-1 -1,-1 0,-2 -2,-3 -2,-4 0,0 -1,0 -1,0 0,-1 1,-1 1,-1 0,0 2,-1 2,-4 0,0 1,-1 1,-1 1,0 1,1 1,1 0,3 3,4 3,4 0,0 0,0 0,1 0,0 0,0 0,0 0,0 -3,2 -3,4 0,0 0,1 -1,1zm-1 -5c0,0 1,0 1,1 1,-1 1,-1 2,-1 -1,-1 -1,-1 -2,-2 0,1 -1,1 -1,2zm-174 -29c0,0 -1,-1 -1,-1 0,-2 -2,-4 -2,-4 0,0 -1,0 -1,0 0,-1 1,-1 1,-1 0,0 2,-1 2,-4 0,0 1,-1 1,-1 1,0 1,1 1,1 0,3 3,4 3,4 0,0 0,0 0,1 0,0 0,0 0,0 0,0 -3,1 -3,4 0,0 0,1 -1,1zm-1 -5c0,0 1,0 1,1 1,-1 1,-1 2,-1 -1,-1 -1,-1 -2,-2 0,1 -1,1 -1,2zm22 -175c-1,0 -1,0 -1,-1 0,-2 -2,-3 -2,-3 -1,0 -1,-1 -1,-1 0,0 0,-1 1,-1 0,0 2,-1 2,-3 0,-1 0,-1 1,-1 1,0 1,0 1,1 0,2 2,3 2,3 1,0 1,1 1,1 0,0 0,1 -1,1 0,0 -2,1 -2,3 0,1 0,1 -1,1zm-1 -5c0,0 1,1 1,2 0,-1 1,-2 1,-2 0,0 -1,-1 -1,-1 0,0 -1,1 -1,1zm-28 -68c-1,0 -1,0 -1,0 0,-3 -2,-4 -3,-4 0,0 0,0 0,-1 0,0 0,0 0,0 1,0 3,-2 3,-4 0,0 0,-1 1,-1 0,0 1,1 1,1 0,2 2,3 2,4 1,0 1,0 1,0 0,1 0,1 -1,1 0,0 -2,1 -2,4 0,0 -1,0 -1,0zm-2 -5c1,1 1,1 2,2 0,-1 1,-1 1,-2 0,0 -1,0 -1,-1 -1,1 -1,1 -2,1zm-19 -15c0,0 -1,0 -1,-1 0,-2 -2,-3 -2,-3 0,0 -1,-1 -1,-1 0,0 1,-1 1,-1 0,0 2,-1 2,-3 0,-1 1,-1 1,-1 1,0 1,0 1,1 0,2 3,3 3,3 0,0 0,1 0,1 0,0 0,1 0,1 0,0 -3,1 -3,3 0,1 0,1 -1,1zm-1 -5c0,0 1,1 1,1 1,0 1,-1 2,-1 -1,0 -1,-1 -2,-1 0,0 -1,1 -1,1zm-80 146c0,0 -1,-1 -1,-1 0,-2 -2,-3 -2,-3 0,-1 -1,-1 -1,-1 0,-1 1,-1 1,-1 0,0 2,-1 2,-4 0,0 1,0 1,0 1,0 1,0 1,0 0,3 3,4 3,4 0,0 0,0 0,1 0,0 0,0 0,1 0,0 -3,1 -3,3 0,0 0,1 -1,1zm-1 -5c0,0 1,1 1,1 1,0 1,-1 2,-1 -1,-1 -1,-1 -2,-2 0,1 -1,1 -1,2zm-5 -67c0,0 -1,0 -1,-1 0,-2 -2,-3 -2,-3 -1,0 -1,0 -1,-1 0,0 0,0 1,-1 0,0 2,-1 2,-3 0,-1 1,-1 1,-1 1,0 1,0 1,1 0,2 2,3 3,3 0,1 0,1 0,1 0,1 0,1 0,1 -1,0 -3,1 -3,3 0,1 0,1 -1,1zm-1 -5c0,1 1,1 1,2 0,-1 1,-1 1,-2 0,0 -1,-1 -1,-1 0,0 -1,1 -1,1zm-36 -142c-1,0 -1,-1 -1,-1 0,-2 -3,-3 -3,-4 0,0 0,0 0,0 0,-1 0,-1 0,-1 0,0 3,-1 3,-4 0,0 0,0 1,0 0,0 1,0 1,0 0,3 2,4 2,4 1,0 1,0 1,1 0,0 0,0 -1,0 0,0 -2,2 -2,4 0,0 -1,1 -1,1zm-2 -5c1,0 1,0 2,1 0,-1 1,-1 1,-1 0,-1 -1,-1 -1,-2 -1,1 -1,1 -2,2zm42 -21c0,0 -1,-1 -1,-1 0,-3 -2,-4 -2,-4 -1,0 -1,0 -1,-1 0,0 0,0 1,0 0,0 2,-1 2,-4 0,0 1,-1 1,-1 1,0 1,1 1,1 0,3 3,4 3,4 0,0 0,0 0,0 0,1 0,1 0,1 0,0 -3,1 -3,4 0,0 0,1 -1,1zm-1 -6c0,1 1,1 1,2 1,-1 1,-1 2,-2 -1,0 -1,0 -2,-1 0,1 -1,1 -1,1zm307 156c0,0 -1,0 -1,-1 0,-2 -2,-3 -2,-3 -1,0 -1,-1 -1,-1 0,0 0,-1 1,-1 0,0 2,-1 2,-3 0,-1 1,-1 1,-1 1,0 1,0 1,1 0,2 3,3 3,3 0,1 0,1 0,1 0,0 0,1 0,1 0,0 -3,1 -3,3 0,1 0,1 -1,1zm-1 -5c0,0 1,1 1,2 1,-1 1,-2 2,-2 -1,0 -1,-1 -2,-1 0,0 -1,1 -1,1zm374 194c-1,0 -1,0 -1,0l-1 -6 -6 2c0,0 -1,0 -1,-1 0,0 0,-1 0,-1l5 -4 -5 -4c0,0 0,0 0,-1 0,0 1,0 1,0l6 2 1 -6c0,-1 0,-1 1,-1 0,0 1,0 1,1l1 6 6 -2c0,0 0,0 1,0 0,1 0,1 -1,1l-4 4 4 4c1,0 1,1 1,1 -1,1 -1,1 -1,1l-6 -2 -1 6c0,0 -1,0 -1,0zm-1 -8c0,0 0,0 0,0 0,0 0,0 0,1l1 2 1 -2c0,-1 0,-1 0,-1 0,0 0,0 1,0l2 1 -2 -2c0,0 0,0 0,-1 0,0 0,0 0,0l2 -2 -2 1c-1,0 -1,0 -1,0 0,0 0,-1 0,-1l-1 -2 -1 2c0,0 0,1 0,1 0,0 0,0 -1,0l-2 -1 2 2c0,0 0,0 0,0 0,1 0,1 0,1l-2 2 2 -1c0,0 0,0 1,0zm62 -60l0 0c0,0 0,-1 0,-1l-2 -6 -5 2c-1,0 -1,0 -1,-1 0,0 0,0 0,-1l4 -4 -4 -3c0,-1 0,-1 0,-2 0,0 0,0 1,0l5 2 2 -6c0,0 0,-1 0,-1 1,0 1,1 1,1l2 6 5 -2c1,0 1,0 1,0 0,1 0,1 0,2l-4 3 4 4c0,1 0,1 0,1 0,1 0,1 -1,1l-5 -2 -2 6c0,0 0,1 -1,1zm-1 -9c0,0 0,0 1,0 0,0 0,0 0,1l0 2 1 -2c0,-1 0,-1 0,-1 1,0 1,0 1,0l3 1 -2 -2c-1,0 -1,0 -1,-1 0,0 0,0 1,0l2 -2 -3 1c0,0 0,0 -1,0 0,0 0,0 0,-1l-1 -2 0 2c0,1 0,1 0,1 -1,0 -1,0 -1,0l-3 -1 2 2c1,0 1,0 1,0 0,1 0,1 -1,1l-2 2 3 -1c0,0 0,0 0,0zm4 110c-1,0 -1,0 -1,-1l-1 -5 -6 2c0,0 -1,0 -1,-1 0,0 0,-1 0,-1l5 -4 -5 -4c0,0 0,-1 0,-1 0,0 1,0 1,0l6 2 1 -6c0,-1 0,-1 1,-1 0,0 0,0 1,1l1 6 5 -2c1,0 1,0 1,0 1,0 1,1 0,1l-4 4 4 4c1,0 1,1 0,1 0,1 0,1 -1,1l-5 -2 -1 5c-1,1 -1,1 -1,1zm-2 -8c0,0 1,0 1,0 0,0 0,0 0,0l1 3 0 -3c0,0 0,0 1,0 0,0 0,-1 0,0l3 0 -2 -1c0,0 0,-1 0,-1 0,0 0,0 0,0l2 -2 -3 1c0,0 0,0 0,0 0,0 -1,-1 -1,-1l0 -2 -1 2c0,0 0,0 0,1 0,0 -1,0 -1,0l-2 -1 2 2c0,0 0,0 0,0 0,0 0,1 0,1l-2 1 2 0c0,0 0,0 0,0zm-27 76c-1,0 -1,-1 -1,-1l-1 -6 -6 2c0,0 -1,0 -1,0 0,-1 0,-1 0,-2l5 -3 -5 -4c0,-1 0,-1 0,-2 0,0 1,0 1,0l6 2 1 -6c0,0 0,-1 1,-1 0,0 0,1 1,1l1 6 5 -2c1,0 1,0 1,0 1,1 1,1 0,2l-4 4 4 3c1,1 1,1 0,2 0,0 0,0 -1,0l-5 -2 -1 6c-1,0 -1,1 -1,1zm-2 -9c0,0 0,0 1,0 0,0 0,0 0,1l1 2 0 -2c0,-1 0,-1 1,-1 0,0 0,0 0,0l3 1 -2 -2c0,0 0,0 0,0 0,-1 0,-1 0,-1l2 -2 -3 1c0,0 0,0 0,0 -1,0 -1,0 -1,-1l0 -2 -1 2c0,1 0,1 0,1 -1,0 -1,0 -1,0l-2 -1 1 2c1,0 1,0 1,1 0,0 0,0 -1,0l-1 2 2 -1c0,0 0,0 0,0zm-299 -392c-1,0 -1,0 -1,-1l-1 -6 -6 2c0,0 -1,0 -1,0 0,-1 0,-1 0,-1l5 -4 -4 -3c-5,0 -11,0 -17,0l0 109 62 -107c-10,-1 -20,-1 -30,-2l-3 3 4 4c1,0 1,0 0,1 0,0 0,0 -1,0l-5 -2 -1 6c-1,1 -1,1 -1,1zm-9 -15c0,0 0,0 0,0 0,-1 1,-1 1,-1l3 1c1,0 2,0 3,0l1 -5c0,0 0,0 1,0l0 0c0,0 1,0 1,0l1 5 2 1 3 -2c1,0 1,0 1,1 1,0 1,0 0,1 10,0 20,1 30,1l32 -55c-19,-33 -54,-56 -95,-56l0 109c6,0 11,0 16,0zm7 6c0,0 1,0 1,0 0,0 0,1 0,1l1 2 0 -2c0,0 0,-1 1,-1 0,0 0,0 0,0l3 1 -2 -2c0,0 0,0 0,0 0,-1 0,-1 0,-1l2 -2 -3 1c0,0 0,0 0,0 0,0 -1,0 -1,0l0 -1 -1 0 0 1c0,0 0,0 0,0 0,0 -1,0 -1,0l-2 -1 2 2c0,0 0,1 0,1 0,0 0,0 0,0l-2 2 2 -1c0,0 0,0 0,0zm2 -6l0 0 0 0 0 0zm-327 -161c0,0 -1,-1 -1,-1l-1 -6 -5 2c-1,0 -1,0 -1,0 -1,-1 -1,-1 0,-1l4 -4 -4 -4c-1,-1 -1,-1 0,-1 0,-1 0,-1 1,-1l5 2 1 -6c0,0 1,0 1,0l0 0c1,0 1,0 1,0l1 6 6 -2c0,0 1,0 1,1 0,0 0,0 0,1l-5 4 5 4c0,0 0,0 0,1 0,0 -1,0 -1,0l-6 -2 -1 6c0,0 0,1 -1,1zm-1 -9c0,0 0,0 0,0 1,0 1,0 1,1l0 2 1 -2c0,-1 0,-1 0,-1 1,0 1,0 1,0l2 1 -2 -2c0,0 0,0 0,0 0,-1 0,-1 0,-1l2 -2 -2 1c0,0 -1,0 -1,0 0,0 0,0 0,-1l-1 -2 0 2c0,1 0,1 -1,1 0,0 0,0 0,0l-3 -1 2 2c0,0 0,0 0,1 0,0 0,0 0,0l-2 2 3 -1c0,0 0,0 0,0zm-48 54l0 0c0,0 0,0 -1,-1l-1 -6 -5 2c-1,0 -1,0 -1,0 -1,0 -1,-1 0,-1l4 -4 -4 -4c-1,0 -1,-1 0,-1 0,-1 0,-1 1,-1l5 2 1 -5c1,-1 1,-1 1,-1 1,0 1,0 1,1l1 5 6 -2c0,0 1,0 1,1 0,0 0,1 0,1l-4 4 4 4c0,0 0,1 0,1 0,0 -1,0 -1,0l-6 -2 -1 6c0,1 0,1 -1,1zm-1 -9c0,0 0,0 0,0 1,0 1,1 1,1l0 2 1 -2c0,0 0,0 0,-1 1,0 1,0 1,0l3 1 -2 -2c-1,0 -1,0 -1,0 0,0 0,-1 1,-1l2 -1 -3 0c0,1 0,1 -1,0 0,0 0,0 0,0l-1 -3 0 3c0,0 0,0 -1,0 0,0 0,1 0,0l-3 0 2 1c0,0 1,1 1,1 0,0 -1,0 -1,0l-2 2 3 -1c0,0 0,0 0,0zm83 50l0 0c-1,0 -1,-1 -1,-1l-1 -6 -6 2c0,0 -1,0 -1,0 0,-1 0,-1 0,-2l5 -3 -5 -4c0,-1 0,-1 0,-1 0,-1 1,-1 1,-1l6 2 1 -6c0,0 0,-1 1,-1 0,0 0,1 1,1l1 6 5 -2c1,0 1,0 1,1 1,0 1,0 0,1l-4 4 4 3c1,1 1,1 0,2 0,0 0,0 -1,0l-5 -2 -1 6c-1,0 -1,1 -1,1zm-2 -9c0,0 1,0 1,0 0,0 0,1 0,1l1 2 0 -2c0,0 0,-1 1,-1 0,0 0,0 0,0l3 1 -2 -2c0,0 0,0 0,0 0,-1 0,-1 0,-1l2 -2 -3 1c0,0 0,0 0,0 0,0 -1,0 -1,-1l0 -2 -1 2c0,1 0,1 0,1 0,0 -1,0 -1,0l-2 -1 2 2c0,0 0,0 0,1 0,0 0,0 0,0l-2 2 2 -1c0,0 0,0 0,0zm164 -193l0 0c-1,0 -1,-1 -1,-1l-2 -6 -5 2c0,0 -1,0 -1,0 0,-1 0,-1 0,-1l4 -4 -4 -4c0,-1 0,-1 0,-1 0,-1 0,-1 1,-1l5 2 2 -6c0,0 0,0 1,0 0,0 0,0 0,0l2 6 5 -2c1,0 1,0 1,1 0,0 0,0 0,1l-4 4 4 4c0,0 0,0 0,1 0,0 0,0 -1,0l-5 -2 -2 6c0,0 0,1 0,1zm-2 -9c0,0 0,0 1,0 0,0 0,1 0,1l1 2 0 -2c0,0 0,-1 1,-1 0,0 0,0 0,0l3 1 -2 -2c0,0 0,0 0,0 0,-1 0,-1 0,-1l2 -2 -3 1c0,0 0,0 0,0 -1,0 -1,0 -1,-1l0 -2 -1 2c0,1 0,1 0,1 -1,0 -1,0 -1,0l-2 -1 1 2c1,0 1,0 1,1 0,0 0,0 -1,0l-1 2 2 -1c0,0 0,0 0,0zm208 -40c0,0 0,0 -1,0l0 -1c-32,-7 -64,-11 -98,-11l0 227c41,0 77,23 96,56l129 -223c-16,-9 -33,-17 -50,-24 -24,-11 -49,-19 -75,-25l0 1c0,0 0,0 -1,0zm-1 -3l-1 -3 -5 2 0 0c2,0 4,1 6,1zm-7 -1c0,-1 0,-1 0,-1 -1,0 -1,0 0,-1l4 -4 -4 -4c-1,0 -1,0 0,-1 0,0 0,0 1,0l5 2 1 -6c1,0 1,-1 1,-1 1,0 1,1 1,1l1 6 6 -2c0,0 1,0 1,0 0,1 0,1 0,1l-4 4 4 4c0,1 0,1 0,1 0,1 -1,1 -1,1l-6 -2 0 4c25,6 50,14 75,24 17,7 34,16 50,25l7 -12c-15,-13 -31,-25 -47,-36l0 0 0 0c-59,-25 -121,-37 -186,-38l0 25c31,0 61,3 91,10zm7 -4c0,0 0,0 0,0 1,0 1,0 1,0l0 3 1 -3c0,0 0,0 0,0 1,0 1,0 1,0l3 1 -2 -2c-1,0 -1,-1 -1,-1 0,0 0,0 1,0l2 -2 -3 1c0,0 0,0 -1,0 0,0 0,-1 0,-1l-1 -2 0 2c0,0 0,1 -1,1 0,0 0,0 0,0l-3 -1 2 2c0,0 1,0 1,0 0,1 -1,1 -1,1l-2 2 3 -1c0,0 0,0 0,0zm-62 70l0 0c0,0 0,0 0,-1l-2 -6 -5 2c-1,0 -1,0 -1,0 0,0 0,-1 0,-1l4 -4 -4 -4c0,0 0,-1 0,-1 0,0 0,-1 1,0l5 1 2 -5c0,-1 0,-1 0,-1 1,0 1,0 1,1l1 5 6 -1c1,-1 1,0 1,0 0,0 0,1 0,1l-4 4 4 4c0,0 0,1 0,1 0,0 0,0 -1,0l-6 -2 -1 6c0,1 0,1 -1,1zm-1 -9c0,0 0,0 1,0 0,1 0,1 0,1l1 3 0 -3c0,0 0,0 0,-1 1,0 1,0 1,0l3 1 -2 -1c-1,-1 -1,-1 -1,-1 0,0 0,-1 1,-1l2 -1 -3 0c0,1 0,1 -1,0 0,0 0,0 0,0l0 -3 -1 3c0,0 0,0 0,0 -1,0 -1,1 -1,0l-3 0 2 1c1,0 1,1 1,1 0,0 0,0 -1,1l-2 1 3 -1c0,0 0,0 0,0zm45 75c-1,0 -1,0 -1,-1l-2 -5 -5 2c-1,0 -1,0 -1,-1 0,0 0,-1 0,-1l4 -4 -4 -4c0,0 0,-1 0,-1 0,0 0,0 1,0l5 2 2 -6c0,-1 0,-1 1,-1 0,0 0,0 0,1l2 6 5 -2c1,0 1,0 1,0 0,0 0,1 0,1l-4 4 4 4c0,0 0,1 0,1 0,1 0,1 -1,1l-5 -2 -2 5c0,1 0,1 0,1zm-2 -8c0,0 0,0 1,0 0,0 0,0 0,0l1 3 0 -3c0,0 0,0 1,0 0,0 0,-1 0,0l3 0 -2 -1c0,0 -1,-1 -1,-1 0,0 1,0 1,-1l2 -1 -3 1c0,0 0,0 0,0 -1,0 -1,-1 -1,-1l0 -2 -1 2c0,0 0,0 0,1 -1,0 -1,0 -1,0l-3 -1 2 1c1,1 1,1 1,1 0,0 0,1 -1,1l-2 1 3 0c0,0 0,0 0,0zm69 302l0 0c0,0 -1,0 -1,-1l-1 -5 -5 1c-1,1 -1,0 -1,0 -1,0 -1,-1 0,-1l4 -4 -4 -4c-1,0 -1,-1 0,-1 0,0 0,0 1,0l5 2 1 -6c0,-1 1,-1 1,-1 1,0 1,0 1,1l1 6 6 -2c0,0 1,0 1,0 0,0 0,1 0,1l-5 4 5 4c0,0 0,1 0,1 0,0 -1,1 -1,0l-6 -1 -1 5c0,1 0,1 -1,1zm-1 -8c0,0 0,0 0,0 1,0 1,0 1,0l0 3 1 -3c0,0 0,0 0,0 1,0 1,-1 1,0l2 0 -1 -1c-1,0 -1,-1 -1,-1 0,0 0,0 1,-1l1 -1 -2 1c0,0 0,0 -1,0 0,-1 0,-1 0,-1l-1 -2 0 2c0,0 0,0 -1,1 0,0 0,0 0,0l-3 -1 2 1c0,1 0,1 0,1 0,0 0,1 0,1l-2 1 3 0c0,0 0,0 0,0zm9 -209c0,0 -1,0 -1,-1l-1 -5 -6 1c0,1 0,0 -1,0 0,0 0,-1 1,-1l4 -4 -4 -4c-1,0 -1,-1 -1,-1 1,0 1,-1 1,0l6 2 1 -6c0,-1 1,-1 1,-1 1,0 1,0 1,1l1 6 6 -2c0,-1 1,0 1,0 0,0 0,1 0,1l-5 4 5 4c0,0 0,1 0,1 0,0 -1,1 -1,0l-6 -1 -1 5c0,1 -1,1 -1,1zm-1 -8c0,0 0,0 0,0 0,0 0,0 1,0l0 3 1 -3c0,0 0,0 0,0 0,0 1,-1 1,0l2 0 -2 -1c0,0 0,-1 0,-1 0,0 0,0 0,-1l2 -1 -2 0c-1,1 -1,1 -1,0 0,0 0,0 0,0l-1 -3 -1 3c0,0 0,0 0,0 0,0 0,1 -1,0l-2 0 2 1c0,0 0,1 0,1 0,0 0,0 0,1l-2 1 2 -1c0,1 1,1 1,1zm117 138c-1,0 -1,0 -1,-1l-1 -5 -6 2c0,0 -1,0 -1,-1 0,0 0,-1 0,-1l5 -4 -5 -4c0,0 0,-1 0,-1 0,0 1,0 1,0l6 2 1 -6c0,-1 0,-1 1,-1 0,0 1,0 1,1l1 6 5 -2c1,0 1,0 2,0 0,0 0,1 -1,1l-4 4 4 4c1,0 1,1 1,1 -1,1 -1,1 -2,1l-5 -2 -1 5c0,1 -1,1 -1,1zm-1 -8c0,0 0,0 0,0 0,0 0,0 0,0l1 3 0 -3c1,0 1,0 1,0 0,0 0,0 1,0l2 0 -2 -1c0,0 0,-1 0,-1 0,0 0,0 0,0l2 -2 -2 1c-1,0 -1,0 -1,0 0,0 0,-1 -1,-1l0 -2 -1 2c0,0 0,0 0,1 0,0 0,0 -1,0l-2 -1 2 2c0,0 0,0 0,0 0,0 0,1 0,1l-2 1 2 0c0,0 0,0 1,0zm84 -104l0 0c-1,0 -1,0 -1,-1l-1 -5 -6 2c0,0 -1,0 -1,-1 0,0 0,-1 0,-1l5 -4 -5 -4c0,0 0,-1 0,-1 0,0 1,0 1,0l6 2 1 -6c0,-1 0,-1 1,-1 0,0 1,0 1,1l1 6 5 -2c1,0 1,0 1,0 1,0 1,1 0,1l-4 4 4 4c1,0 1,1 0,1 0,1 0,1 -1,1l-5 -2 -1 5c0,1 -1,1 -1,1zm-2 -8c1,0 1,0 1,0 0,0 0,0 0,0l1 3 0 -3c0,0 1,0 1,0 0,0 0,-1 1,0l2 0 -2 -1c0,0 0,-1 0,-1 0,0 0,0 0,0l2 -2 -2 1c-1,0 -1,0 -1,0 0,0 -1,-1 -1,-1l0 -2 -1 2c0,0 0,0 0,1 0,0 -1,0 -1,0l-2 -1 2 2c0,0 0,0 0,0 0,0 0,1 0,1l-2 1 2 0c0,0 0,0 0,0zm52 204c-1,0 -1,0 -1,-1l-1 -5 -6 1c0,1 -1,0 -1,0 0,0 0,-1 0,-1l5 -4 -5 -4c0,0 0,-1 0,-1 0,0 1,-1 1,0l6 2 0 -4c-19,-7 -41,-14 -66,-21 -4,15 -9,31 -16,46 -1,4 -3,8 -5,12l136 0c0,-6 0,-12 -1,-18 -11,-5 -24,-10 -38,-15l-4 3 4 4c1,0 1,1 0,1 0,0 0,1 -1,0l-5 -1 -1 5c0,1 -1,1 -1,1zm-1 -18l0 -1c0,-1 0,-1 1,-1 0,0 1,0 1,1l0 1c2,1 4,2 6,3l0 0c1,-1 1,0 1,0 1,0 1,0 1,0 14,5 27,10 37,15 -2,-54 -14,-106 -35,-155 -7,-17 -15,-33 -24,-49l-47 27c3,17 4,33 4,49 0,30 -4,60 -11,88 24,7 46,15 66,22zm2 2l1 3 3 -1c-1,-1 -2,-1 -4,-2zm-3 7c1,0 1,0 1,1 0,0 0,0 0,0l1 3 0 -3c1,0 1,0 1,0 0,-1 0,-1 1,-1l2 1 -2 -1c0,-1 0,-1 0,-1 0,0 0,0 0,-1l2 -1 -2 1c-1,0 -1,0 -1,0 0,-1 0,-1 -1,-1l0 -3 -1 3c0,0 0,0 0,1 0,0 -1,0 -1,0l-2 -1 2 1c0,1 0,1 0,1 0,0 0,1 0,1l-2 1 2 -1c0,0 0,0 0,0zm-55 113l0 0c0,0 -1,0 -1,-1l-1 -6 -6 2c0,0 0,0 -1,0 0,-1 0,-1 0,-1l5 -4 -5 -4c0,0 0,-1 0,-1 0,-1 1,-1 1,-1l6 2 1 -6c0,0 1,0 1,0 0,0 1,0 1,0l1 6 6 -2c0,0 0,0 1,1 0,0 0,0 0,1l-5 4 5 4c0,0 0,0 0,1 0,0 -1,0 -1,0l-6 -2 -1 6c0,0 -1,1 -1,1zm-1 -9c0,0 0,0 0,0 0,0 0,1 1,1l0 2 1 -2c0,0 0,0 0,-1 0,0 1,0 1,0l2 1 -2 -2c0,0 0,0 0,0 0,0 0,-1 0,-1l2 -2 -2 1c0,0 -1,0 -1,0 0,0 0,0 0,0l-1 -3 0 3c-1,0 -1,0 -1,0 0,0 0,0 -1,0l-2 -1 2 2c0,0 0,1 0,1 0,0 0,0 0,0l-2 2 2 -1c0,0 1,0 1,0zm-150 138c-1,0 -1,0 -1,-1l-1 -6 -6 2c0,1 -1,0 -1,0 0,0 0,-1 0,-1l5 -4 -5 -4c0,0 0,-1 0,-1 0,0 1,-1 1,0l6 1 1 -5c0,-1 0,-1 1,-1 0,0 0,0 1,1l1 5 5 -1c1,-1 1,0 1,0 1,0 1,1 0,1l-4 4 4 4c1,0 1,1 0,1 0,0 0,1 -1,0l-5 -2 -1 6c-1,1 -1,1 -1,1zm-2 -9c1,0 1,0 1,1 0,0 0,0 0,0l1 3 0 -3c0,0 0,0 1,0 0,-1 0,-1 0,-1l3 1 -2 -1c0,-1 0,-1 0,-1 0,0 0,0 0,-1l2 -1 -3 1c0,0 0,0 0,0 0,-1 -1,-1 -1,-1l0 -3 -1 3c0,0 0,0 0,1 0,0 -1,0 -1,0l-2 -1 2 1c0,1 0,1 0,1 0,0 0,1 0,1l-2 1 2 -1c0,0 0,0 0,0zm-113 -100c-1,0 -1,0 -1,0l-1 -6 -6 2c0,0 -1,0 -1,-1 0,0 0,-1 0,-1l5 -4 -5 -4c0,0 0,0 0,-1 0,0 1,0 1,0l6 2 1 -6c0,-1 0,-1 1,-1l0 0c0,0 1,0 1,1l1 6 6 -2c0,0 0,0 1,0 0,1 0,1 -1,1l-4 4 4 4c1,0 1,1 1,1 -1,1 -1,1 -1,1l-6 -2 -1 6c0,0 -1,0 -1,0zm-1 -8c0,0 0,0 0,0 0,0 0,0 0,0l1 3 1 -3c0,0 0,0 0,0 0,0 0,0 1,0l2 1 -2 -2c0,0 0,-1 0,-1 0,0 0,0 0,0l2 -2 -2 1c-1,0 -1,0 -1,0 0,0 0,-1 -1,-1l0 -2 -1 2c0,0 0,1 0,1 0,0 -1,0 -1,0l-2 -1 2 2c0,0 0,0 0,0 0,1 0,1 0,1l-2 2 2 -1c0,0 0,0 1,0zm-147 75c0,0 -1,0 -1,0l-1 -6 -6 2c0,0 0,0 -1,-1 0,0 0,-1 0,-1l5 -4 -5 -4c0,0 0,0 0,-1 0,0 1,0 1,0l6 2 1 -6c0,-1 1,-1 1,-1 0,0 1,0 1,1l1 6 6 -2c0,0 0,0 1,0 0,1 0,1 0,1l-5 4 5 4c0,0 0,1 0,1 0,1 -1,1 -1,1l-6 -2 -1 6c0,0 -1,0 -1,0zm-1 -8c0,0 0,0 0,0 0,0 0,0 1,0l0 3 1 -3c0,0 0,0 0,0 0,0 1,0 1,0l2 1 -2 -2c0,0 0,-1 0,-1 0,0 0,0 0,0l2 -2 -2 1c0,0 -1,0 -1,0 0,0 0,-1 0,-1l-1 -2 0 2c-1,0 -1,1 -1,1 0,0 0,0 -1,0l-2 -1 2 2c0,0 0,0 0,0 0,1 0,1 0,1l-2 2 2 -1c1,0 1,0 1,0zm-92 -14l0 0c0,0 -1,0 -1,-1l-1 -5 -5 1c-1,1 -1,0 -2,0 0,0 0,-1 1,-1l4 -4 -4 -4c-1,0 -1,-1 -1,-1 1,0 1,0 2,0l5 2 1 -6c0,-1 1,-1 1,-1 1,0 1,0 1,1l1 6 6 -2c0,0 1,0 1,0 0,0 0,1 0,1l-5 4 5 4c0,0 0,1 0,1 0,0 -1,1 -1,0l-6 -1 -1 5c0,1 0,1 -1,1zm-1 -8c0,0 0,0 0,0 0,0 1,0 1,0l0 3 1 -3c0,0 0,0 0,0 0,0 1,0 1,0l2 0 -2 -1c0,0 0,-1 0,-1 0,0 0,0 0,0l2 -2 -2 1c0,0 -1,0 -1,0 0,0 0,-1 0,-1l-1 -2 0 2c0,0 -1,0 -1,1 0,0 0,0 -1,0l-2 -1 2 2c0,0 0,0 0,0 0,0 0,1 0,1l-2 1 2 0c1,0 1,0 1,0zm301 138c-1,0 -1,-1 -1,-1l-2 -6 -5 2c-1,0 -1,0 -1,0 0,-1 0,-1 0,-1l4 -4 -4 -4c0,-1 0,-1 0,-1 0,-1 0,-1 1,-1l5 2 2 -6c0,0 0,0 1,0 0,0 0,0 0,0l2 6 5 -2c1,0 1,0 1,1 0,0 0,0 0,1l-4 4 4 4c0,0 0,0 0,1 0,0 0,0 -1,0l-5 -2 -2 6c0,0 0,1 0,1zm-2 -9c0,0 0,0 1,0 0,0 0,1 0,1l1 2 0 -2c0,0 0,-1 1,-1 0,0 0,0 0,0l3 1 -2 -2c0,0 -1,0 -1,0 0,0 1,-1 1,-1l2 -2 -3 1c0,0 0,0 0,0 -1,0 -1,0 -1,0l0 -3 -1 3c0,0 0,0 0,0 -1,0 -1,0 -1,0l-3 -1 2 2c1,0 1,1 1,1 0,0 0,0 -1,0l-2 2 3 -1c0,0 0,0 0,0zm81 66l0 0c0,0 0,0 0,-1l-2 -5 -5 1c-1,1 -1,0 -1,0 -1,0 0,-1 0,-1l4 -4 -4 -4c0,0 0,-1 0,-1 0,0 0,-1 1,0l5 2 2 -6c0,-1 0,-1 0,-1 1,0 1,0 1,1l2 6 5 -2c1,-1 1,0 1,0 0,0 0,1 0,1l-4 4 4 4c0,0 0,1 0,1 0,0 0,1 -1,0l-5 -1 -2 5c0,1 0,1 -1,1zm-1 -9c0,0 0,0 1,1 0,0 0,0 0,0l1 3 0 -3c0,0 0,0 1,0 0,-1 0,-1 0,-1l3 1 -2 -1c0,-1 -1,-1 -1,-1 0,0 1,-1 1,-1l2 -1 -3 1c0,0 0,0 0,-1 -1,0 -1,0 -1,0l0 -3 -1 3c0,0 0,0 0,0 -1,1 -1,1 -1,1l-2 -1 1 1c1,1 1,1 1,1 0,0 0,1 -1,1l-1 1 2 -1c0,0 0,0 0,0zm-129 51c-1,0 -1,-1 -1,-1l-1 -6 -6 2c0,0 -1,0 -1,0 0,-1 0,-1 0,-1l5 -4 -5 -4c0,-1 0,-1 0,-1 0,-1 1,-1 1,-1l6 2 1 -6c0,0 0,0 1,0 0,0 1,0 1,0l1 6 5 -2c1,0 1,0 1,1 1,0 1,0 0,1l-4 4 4 4c1,0 1,0 0,1 0,0 0,0 -1,0l-5 -2 -1 6c-1,0 -1,1 -1,1zm-2 -9c0,0 1,0 1,0 0,0 0,0 0,1l1 2 0 -2c0,-1 0,-1 1,-1 0,0 0,0 0,0l3 1 -2 -2c0,0 0,0 0,0 0,-1 0,-1 0,-1l2 -2 -3 1c0,0 0,0 0,0 0,0 -1,0 -1,-1l0 -2 -1 2c0,1 0,1 0,1 0,0 -1,0 -1,0l-2 -1 2 2c0,0 0,0 0,1 0,0 0,0 0,0l-2 2 2 -1c0,0 0,0 0,0zm-257 23c-1,0 -1,0 -1,-1l-1 -5 -6 1c0,1 -1,0 -1,0 0,0 0,-1 0,-1l5 -4 -5 -4c0,0 0,-1 0,-1 0,0 1,-1 1,0l6 2 1 -6c0,-1 0,-1 1,-1 0,0 1,0 1,1l1 6 5 -2c1,-1 1,0 2,0 0,0 0,1 -1,1l-4 4 4 4c1,0 1,1 1,1 -1,1 -1,1 -2,1l-5 -2 -1 5c0,1 -1,1 -1,1zm-2 -8c1,0 1,0 1,0 0,0 0,0 0,0l1 3 0 -3c1,0 1,0 1,0 0,0 0,-1 1,0l2 0 -2 -1c0,0 0,-1 0,-1 0,0 0,0 0,-1l2 -1 -2 1c-1,0 -1,0 -1,0 0,-1 0,-1 -1,-1l0 -3 -1 3c0,0 0,0 0,1 0,0 -1,0 -1,0l-2 -1 2 1c0,1 0,1 0,1 0,0 0,1 0,1l-2 1 2 -1c0,1 0,1 0,1zm151 -12c-1,0 -1,0 -1,-1l-1 -6 -6 2c0,0 -1,0 -1,0 0,-1 0,-1 0,-1l5 -4 -5 -4c0,0 0,-1 0,-1 0,-1 1,-1 1,-1l6 2 1 -6c0,0 0,0 1,0 0,0 1,0 1,0l1 6 6 -2c0,0 0,0 1,1 0,0 0,0 -1,1l-4 4 4 4c1,0 1,0 1,1 -1,0 -1,0 -1,0l-6 -2 -1 6c0,1 -1,1 -1,1zm-1 -9c0,0 0,0 0,0 0,0 0,1 0,1l1 2 1 -2c0,0 0,0 0,-1 0,0 0,0 1,0l2 1 -2 -2c0,0 0,0 0,0 0,0 0,-1 0,-1l2 -1 -2 0c-1,0 -1,0 -1,0 0,0 0,0 0,0l-1 -3 -1 3c0,0 0,0 0,0 0,0 0,0 -1,0l-2 0 2 1c0,0 0,1 0,1 0,0 0,0 0,0l-2 2 2 -1c0,0 0,0 1,0zm-24 -90c-1,0 -1,0 -1,-1l-1 -5 -6 2c0,0 -1,0 -1,-1 0,0 0,-1 0,-1l5 -4 -5 -4c0,0 0,-1 0,-1 0,0 1,0 1,0l6 2 1 -6c0,-1 0,-1 1,-1 0,0 0,0 1,1l1 6 5 -2c1,0 1,0 1,0 1,0 1,1 0,1l-4 4 4 4c1,0 1,1 0,1 0,1 0,1 -1,1l-5 -2 -1 5c-1,1 -1,1 -1,1zm-2 -8c1,0 1,0 1,0 0,0 0,0 0,0l1 3 0 -3c0,0 1,0 1,0 0,0 0,-1 0,0l3 0 -2 -1c0,0 0,-1 0,-1 0,0 0,0 0,0l2 -2 -3 1c0,0 0,0 0,0 0,0 -1,-1 -1,-1l0 -2 -1 2c0,0 0,0 0,1 0,0 -1,0 -1,0l-2 -1 2 2c0,0 0,0 0,0 0,0 0,1 0,1l-2 1 2 0c0,0 0,0 0,0zm-248 56c-1,0 -1,-1 -1,-1l-1 -6 -6 2c0,0 -1,0 -1,0 0,-1 0,-1 0,-2l5 -4 -5 -3c0,-1 0,-1 0,-2 0,0 1,0 1,0l6 2 1 -6c0,0 0,-1 1,-1 0,0 1,1 1,1l1 6 5 -2c1,0 1,0 1,0 1,1 1,1 0,2l-4 3 4 4c1,1 1,1 0,2 0,0 0,0 -1,0l-5 -2 -1 6c-1,0 -1,1 -1,1zm-2 -9c0,0 1,0 1,0 0,0 0,0 0,1l1 2 0 -2c0,-1 0,-1 1,-1 0,0 0,0 0,0l3 1 -2 -2c0,0 0,0 0,-1 0,0 0,0 0,0l2 -2 -3 1c0,0 0,0 0,0 0,0 -1,0 -1,-1l0 -2 -1 2c0,1 0,1 0,1 0,0 -1,0 -1,0l-2 -1 2 2c0,0 0,0 0,0 0,1 0,1 0,1l-2 2 2 -1c0,0 0,0 0,0zm99 -45c0,0 -1,0 -1,-1l-1 -6 -5 2c-1,0 -1,0 -2,0 0,-1 0,-1 1,-1l4 -4 -4 -4c-1,0 -1,-1 -1,-1 1,-1 1,-1 2,-1l5 2 1 -6c0,0 1,0 1,0 1,0 1,0 1,0l1 6 6 -2c0,0 1,0 1,1 0,0 0,1 0,1l-5 4 5 4c0,0 0,0 0,1 0,0 -1,0 -1,0l-6 -2 -1 6c0,1 0,1 -1,1zm-1 -9c0,0 0,0 0,0 0,0 1,1 1,1l0 2 1 -2c0,0 0,-1 0,-1 0,0 1,0 1,0l2 1 -2 -2c0,0 0,0 0,0 0,-1 0,-1 0,-1l2 -1 -2 0c0,0 -1,0 -1,0 0,0 0,0 0,0l-1 -3 0 3c0,0 0,0 -1,0 0,0 0,0 0,0l-3 0 2 1c0,0 0,1 0,1 0,0 0,0 0,0l-2 2 3 -1c0,0 0,0 0,0zm21 -48c0,0 0,0 -1,-1l-1 -6 -5 2c-1,1 -1,0 -1,0 -1,0 -1,-1 0,-1l4 -4 -4 -4c-1,0 -1,-1 0,-1 0,0 0,-1 1,0l5 1 1 -5c1,-1 1,-1 1,-1 1,0 1,0 1,1l1 5 6 -1c0,-1 1,0 1,0 0,0 0,1 0,1l-4 4 4 4c0,0 0,1 0,1 0,0 -1,1 -1,0l-6 -1 -1 5c0,1 0,1 -1,1zm-1 -8c0,0 0,0 0,0 1,0 1,0 1,0l0 3 1 -3c0,0 0,0 0,0 1,0 1,-1 1,0l3 0 -2 -1c-1,0 -1,-1 -1,-1 0,0 0,0 1,-1l2 -1 -3 1c0,0 0,0 -1,0 0,-1 0,-1 0,-1l-1 -2 0 2c0,0 0,0 -1,1 0,0 0,0 0,0l-3 -1 2 1c0,1 1,1 1,1 0,0 -1,1 -1,1l-2 1 3 0c0,0 0,0 0,0zm-24 26l0 0c-1,0 -1,-1 -1,-1l-1 -6 -6 2c0,0 -1,0 -1,0 0,-1 0,-1 0,-2l4 -3 -4 -4c0,-1 0,-1 0,-2 0,0 1,0 1,0l6 2 1 -6c0,0 0,-1 1,-1 0,0 0,1 1,1l1 6 5 -2c1,0 1,0 1,0 0,1 0,1 0,2l-4 4 4 3c0,1 0,1 0,2 0,0 0,0 -1,0l-5 -2 -1 6c-1,0 -1,1 -1,1zm-2 -9c0,0 1,0 1,0 0,0 0,0 0,1l1 2 0 -2c0,-1 0,-1 1,-1 0,0 0,0 0,0l3 1 -2 -2c0,0 0,0 0,0 0,-1 0,-1 0,-1l2 -2 -3 1c0,0 0,0 0,0 0,0 -1,0 -1,-1l0 -2 -1 2c0,1 0,1 0,1 0,0 -1,0 -1,0l-2 -1 2 2c0,0 0,0 0,1 0,0 0,0 0,0l-2 2 2 -1c0,0 0,0 0,0zm-51 -99l0 0c0,0 -1,-1 -1,-1l-1 -6 -6 2c0,0 0,0 -1,0 0,-1 0,-1 0,-1l5 -4 -5 -4c0,-1 0,-1 0,-1 0,-1 1,-1 1,-1l6 2 1 -6c0,0 1,0 1,0 0,0 1,0 1,0l1 6 6 -2c0,0 0,0 1,1 0,0 0,0 0,1l-5 4 5 4c0,0 0,0 0,1 0,0 -1,0 -1,0l-6 -2 -1 6c0,0 -1,1 -1,1zm-1 -9c0,0 0,0 0,0 0,0 0,1 0,1l1 2 1 -2c0,0 0,-1 0,-1 0,0 0,0 1,0l2 1 -2 -2c0,0 0,0 0,0 0,-1 0,-1 0,-1l2 -2 -2 1c-1,0 -1,0 -1,0 0,0 0,0 0,0l-1 -3 -1 3c0,0 0,0 0,0 0,0 0,0 -1,0l-2 -1 2 2c0,0 0,1 0,1 0,0 0,0 0,0l-2 2 2 -1c0,0 0,0 1,0zm58 3c-1,0 -1,0 -1,0l-2 -6 -5 2c0,0 -1,0 -1,-1 0,0 0,-1 0,-1l4 -4 -4 -4c0,0 0,0 0,-1 0,0 0,0 1,0l5 2 2 -6c0,-1 0,-1 1,-1 0,0 0,0 0,1l2 6 5 -2c1,0 1,0 1,0 0,1 0,1 0,1l-4 4 4 4c0,0 0,1 0,1 0,1 0,1 -1,1l-5 -2 -2 6c0,0 0,0 0,0zm-2 -8c0,0 0,0 1,0 0,0 0,0 0,0l1 3 0 -3c0,0 0,0 1,0 0,0 0,0 0,0l3 1 -2 -2c0,0 -1,0 -1,-1 0,0 1,0 1,0l2 -2 -3 1c0,0 0,0 0,0 -1,0 -1,-1 -1,-1l0 -2 -1 2c0,0 0,1 0,1 -1,0 -1,0 -1,0l-2 -1 1 2c1,0 1,0 1,0 0,1 0,1 -1,1l-1 2 2 -1c0,0 0,0 0,0zm-18 -118c-1,0 -1,0 -1,-1l-1 -6 -6 2c0,0 -1,0 -1,0 0,0 0,-1 0,-1l5 -4 -5 -4c0,0 0,-1 0,-1 0,-1 1,-1 1,-1l6 2 1 -5c0,-1 0,-1 1,-1 0,0 1,0 1,1l1 5 5 -2c1,0 1,0 1,1 1,0 1,1 0,1l-4 4 4 4c1,0 1,1 0,1 0,0 0,0 -1,0l-5 -2 -1 6c0,1 -1,1 -1,1zm-2 -9c1,0 1,0 1,0 0,1 0,1 0,1l1 3 0 -3c0,0 1,0 1,-1 0,0 0,0 1,0l2 1 -2 -1c0,-1 0,-1 0,-1 0,0 0,-1 0,-1l2 -1 -2 1c-1,0 -1,0 -1,-1 0,0 -1,0 -1,0l0 -3 -1 3c0,0 0,0 0,0 0,1 -1,1 -1,1l-2 -1 2 1c0,1 0,1 0,1 0,0 0,0 0,1l-2 1 2 -1c0,0 0,0 0,0zm84 -115c-1,0 -1,-1 -1,-1l-1 -6 -6 2c0,0 -1,0 -1,0 0,-1 0,-1 0,-1l5 -4 -5 -4c0,-1 0,-1 0,-1 0,-1 1,-1 1,-1l6 2 1 -6c0,0 0,0 1,0l0 0c0,0 1,0 1,0l1 6 5 -2c1,0 1,0 1,1 1,0 1,0 0,1l-4 4 4 4c1,0 1,0 0,1 0,0 0,0 -1,0l-5 -2 -1 6c-1,0 -1,1 -1,1zm-2 -9c0,0 1,0 1,0 0,0 0,1 0,1l1 2 0 -2c0,0 0,-1 1,-1 0,0 0,0 0,0l3 1 -2 -2c0,0 0,0 0,0 0,-1 0,-1 0,-1l2 -2 -3 1c0,0 0,0 0,0 0,0 -1,0 -1,0l0 -3 -1 2c0,1 0,1 0,1 0,0 -1,0 -1,0l-2 -1 2 2c0,0 0,0 0,1 0,0 0,0 0,0l-2 2 2 -1c0,0 0,0 0,0zm-14 53l0 0c-1,0 -1,0 -1,0l-1 -6 -6 2c0,0 -1,0 -1,-1 0,0 0,0 0,-1l1 0c-2,0 -5,0 -7,1l72 42c-9,-15 -14,-32 -15,-50 -13,1 -25,3 -37,5l3 2c1,1 1,1 1,1 -1,1 -1,1 -2,1l-5 -2 -1 6c0,0 -1,0 -1,0zm-6 -8l2 -2 -5 -4c0,0 0,0 0,-1 0,0 1,0 1,0l6 2 1 -6c0,0 0,-1 1,-1 0,0 1,1 1,1l1 6 5 -2c1,0 1,0 2,0 0,1 0,1 -1,1l-4 4c13,-2 25,-3 38,-5 0,-1 -1,-3 -1,-5 0,-20 6,-38 15,-54l-129 -224c-18,10 -35,22 -51,34 -9,13 -18,26 -25,40 -21,36 -34,77 -40,118l171 99c4,0 8,-1 12,-1zm5 1l1 2 0 -2c0,-1 0,-1 0,-1l-1 1zm3 -1l2 1 -1 -1 -1 0zm0 -2c0,0 0,0 0,0 0,0 0,0 0,0l2 -2 -2 1c-1,0 -1,0 -1,0 0,0 -1,-1 -1,-1l0 -2 -1 2c0,0 0,1 0,1 0,0 -1,0 -1,0l-2 -1 2 2c0,0 0,0 0,0 0,1 0,1 0,1l0 0c1,0 2,0 4,-1zm30 61l0 0c-1,0 -1,0 -1,0l-1 -6 -6 2c0,0 -1,0 -1,-1 0,0 0,-1 0,-1l5 -4 -5 -4c0,0 0,0 0,-1 0,0 1,0 1,0l6 2 1 -6c0,-1 0,-1 1,-1 0,0 1,0 1,1l1 6 6 -2c0,0 0,0 1,0 0,1 0,1 -1,1l-4 4 4 4c1,0 1,1 1,1 -1,1 -1,1 -1,1l-6 -2 -1 6c0,0 -1,0 -1,0zm-2 -8c1,0 1,0 1,0 0,0 0,0 0,0l1 3 0 -3c1,0 1,0 1,0 0,0 0,0 1,0l2 0 -2 -1c0,0 0,-1 0,-1 0,0 0,0 0,0l2 -2 -2 1c-1,0 -1,0 -1,0 0,0 0,-1 -1,-1l0 -2 -1 2c0,0 0,1 0,1 0,0 -1,0 -1,0l-2 -1 2 2c0,0 0,0 0,0 0,0 0,1 0,1l-2 1 2 0c0,0 0,0 0,0zm-259 -18c0,0 -1,0 -1,0l-1 -6 -6 2c0,0 0,0 -1,-1 0,0 0,-1 1,-1l4 -4 -4 -4c-1,0 -1,0 -1,-1 1,0 1,0 1,0l6 2 1 -6c0,-1 1,-1 1,-1 0,0 1,0 1,1l1 6 6 -2c0,0 0,0 1,0 0,1 0,1 0,1l-5 4 5 4c0,0 0,1 0,1 0,1 -1,1 -1,1l-6 -2 -1 6c0,0 -1,0 -1,0zm-1 -8c0,0 0,0 0,0 0,0 1,0 1,0l0 3 1 -3c0,0 0,0 0,0 0,0 1,0 1,0l2 1 -2 -2c0,0 0,0 0,-1 0,0 0,0 0,0l2 -2 -2 1c0,0 -1,0 -1,0 0,0 0,-1 0,-1l-1 -2 0 2c0,0 -1,1 -1,1 0,0 0,0 -1,0l-2 -1 2 2c0,0 0,0 0,0 0,1 0,1 0,1l-2 2 2 -1c1,0 1,0 1,0zm38 114c0,0 -1,0 -1,-1l-1 -6 -6 2c0,0 0,0 -1,0 0,-1 0,-1 0,-1l5 -4 -5 -4c0,0 0,-1 0,-1 0,-1 1,-1 1,-1l6 2 1 -6c0,0 1,0 1,0 0,0 1,0 1,0l1 6 6 -2c0,0 0,0 1,1 0,0 0,1 -1,1l-4 4 4 4c1,0 1,0 1,1 -1,0 -1,0 -1,0l-6 -2 -1 6c0,0 -1,1 -1,1zm-1 -9c0,0 0,0 0,0 0,0 0,1 1,1l0 2 1 -2c0,0 0,-1 0,-1 0,0 0,0 1,0l2 1 -2 -2c0,0 0,0 0,0 0,0 0,-1 0,-1l2 -1 -2 0c-1,0 -1,0 -1,0 0,0 0,0 0,0l-1 -3 0 3c-1,0 -1,0 -1,0 0,0 0,0 -1,0l-2 0 2 1c0,0 0,1 0,1 0,0 0,0 0,0l-2 2 2 -1c0,0 0,0 1,0zm346 303c-63,0 -121,-8 -175,-26l-49 85c16,9 32,17 49,24 55,24 114,36 175,36l0 -119zm-177 -26c-57,-19 -110,-47 -157,-85 -6,-5 -13,-10 -19,-16l-37 22c20,33 44,64 71,92 28,28 60,52 93,71l49 -84zm-177 -102c-35,-31 -62,-64 -83,-95 5,23 13,45 22,66 7,17 15,34 24,50l37 -21zm-86 -99c-15,-22 -27,-42 -35,-60 4,49 16,96 35,141 8,18 16,36 26,53l22 -13c-9,-16 -18,-33 -25,-50 -10,-23 -18,-47 -23,-71zm-36 -65c0,0 0,1 0,1 9,17 20,37 34,59 -7,-33 -11,-66 -11,-100l-25 0c0,14 1,27 2,40zm37 64c22,32 50,67 87,99l136 -79c-11,-8 -20,-17 -30,-26 -28,-29 -51,-61 -69,-98l-136 0c0,36 4,70 12,104zm88 100c6,6 12,11 18,16 47,37 100,66 157,84l70 -121c-10,-3 -20,-6 -29,-11 -29,-12 -55,-27 -80,-46l-136 78zm177 101c54,17 112,26 174,26l0 -131c-36,0 -71,-6 -104,-16l-70 121zm175 26c62,0 120,-9 174,-26l-70 -121c-33,10 -68,16 -104,16l0 131zm176 -27c57,-18 110,-46 157,-84 6,-5 12,-10 18,-16l-136 -78c-25,19 -51,34 -80,46 -9,5 -19,8 -29,11l70 121zm176 -101c37,-32 65,-67 87,-99 8,-33 12,-68 12,-104l-137 0c-17,37 -40,69 -68,98 -10,9 -20,18 -30,26l136 79zm90 -103c14,-22 25,-42 34,-59 0,0 0,0 0,0 1,-14 2,-27 2,-41l-25 0c0,34 -4,67 -11,100zm33 -55c-8,18 -20,38 -35,60 -5,24 -13,48 -23,71 -7,17 -16,34 -25,50l22 13c10,-17 18,-35 26,-53 19,-45 31,-92 35,-141zm-38 64c-21,31 -48,64 -83,95l37 21c9,-16 17,-33 24,-50 9,-21 17,-43 22,-66zm-84 96c-6,6 -13,11 -19,16 -47,38 -100,66 -157,85l49 84c33,-19 65,-43 93,-71 27,-28 51,-59 71,-92l-37 -22zm-178 101c-54,18 -112,26 -175,26l0 119c61,0 120,-12 175,-36 17,-7 33,-15 49,-24l-49 -85zm238 -66l-22 -12c-19,33 -43,64 -71,92 -28,28 -59,52 -93,72l12 22c36,-21 69,-47 99,-76 29,-30 54,-62 75,-98zm-200 -115l-211 -122 103 179c10,-3 20,-7 29,-11 29,-12 55,-28 79,-46zm-222 -128l-83 -48c19,27 49,45 83,48zm-86 -50l-77 -45c-61,10 -116,24 -164,38 4,16 10,31 16,46 2,5 4,9 6,13l307 0c-37,-2 -69,-22 -88,-52zm-80 -46l-169 -98c-2,16 -3,32 -3,48 0,30 4,59 11,87 47,-13 101,-27 161,-37zm-170 -99l-47 -27c-9,16 -17,32 -24,49 -21,49 -33,101 -35,155 27,-11 66,-26 113,-40 -7,-28 -11,-58 -11,-88 0,-16 1,-32 4,-49zm-49 -28l-22 -12c-9,16 -18,34 -25,51 -24,56 -36,116 -38,177 7,-3 16,-6 26,-11 2,-54 14,-106 35,-156 7,-17 15,-33 24,-49zm-21 -14l22 13c20,-34 44,-66 72,-94 13,-13 28,-26 42,-37 13,-17 28,-33 43,-47l-5 -9c-35,21 -68,46 -98,76 -29,29 -55,62 -76,98zm24 14l46 26c6,-41 20,-82 40,-118 7,-12 14,-24 22,-35 -13,11 -25,22 -37,33 -28,29 -52,60 -71,94zm297 171l90 52c0,0 0,0 1,0l-62 -107c-16,1 -31,2 -45,4 1,19 7,36 16,51zm95 55l213 123c11,-8 21,-17 31,-26 28,-29 51,-61 68,-97l-312 0zm-217 123l213 -123 -311 0c17,36 40,68 68,97 10,9 20,18 30,26zm219 -126l90 -52c9,-15 15,-32 16,-51 -14,-2 -29,-3 -45,-4l-62 107c1,0 1,0 1,0zm93 -53l72 -42c-18,-3 -37,-6 -57,-8 -1,18 -6,35 -15,50zm75 -44l171 -99c-6,-41 -19,-82 -40,-119 -8,-13 -16,-26 -26,-39 -15,-12 -32,-24 -50,-34l-129 224c9,16 15,34 15,54 0,2 -1,4 -1,5 21,3 40,5 60,8zm173 -100l46 -26c-19,-34 -43,-66 -71,-94 -12,-11 -24,-22 -37,-33 8,11 15,23 22,34 20,37 34,78 40,119zm48 -27l22 -13c-21,-36 -47,-69 -76,-98 -30,-30 -63,-55 -98,-76l-5 9c16,14 30,30 43,47 15,11 29,24 42,37 28,28 52,60 72,94zm22 -11l-21 12c9,16 17,32 24,49 21,50 33,102 35,156 10,5 19,8 26,11 -2,-61 -14,-121 -38,-177 -7,-17 -16,-35 -26,-51zm-71 41l-169 98c59,10 114,24 161,37 7,-28 11,-57 11,-87 0,-16 -1,-32 -3,-48zm-172 99l-77 45c-19,29 -51,50 -88,52l307 0c2,-4 4,-8 6,-13 6,-15 12,-30 16,-46 -48,-14 -103,-28 -164,-38zm-80 47l-84 48c35,-3 65,-21 84,-48zm-94 54l-211 122c24,18 50,34 79,46 9,4 19,8 29,11l103 -179zm-389 225l-22 12c21,36 46,68 75,98 30,29 63,55 99,76l12 -22c-34,-20 -65,-44 -93,-72 -28,-28 -52,-59 -71,-92zm625 -635l5 -8c-14,-8 -28,-15 -43,-22 14,9 27,19 38,30zm1 3l-7 12c16,9 31,19 45,30 -11,-15 -24,-29 -38,-42zm-138 238l-31 54c15,1 30,3 45,4 0,-2 0,-3 0,-5 0,-19 -5,-37 -14,-53zm-97 170l-103 178c33,11 67,16 103,16l0 -194zm238 410l-12 -21c-16,9 -32,17 -49,24 -56,24 -115,36 -176,36l0 25c65,0 127,-13 186,-38 17,-7 35,-16 51,-26zm-134 -232l-103 -178 0 194c36,0 70,-5 103,-16zm-169 -294l-31 -54c-9,16 -14,34 -14,53 0,2 0,3 0,5 15,-1 30,-3 45,-4zm-162 -280l-7 -12c-14,13 -26,27 -38,41 14,-10 29,-20 45,-29zm-11 -23l5 8c12,-11 24,-21 38,-30 -15,7 -29,14 -43,22zm5 10l7 12c16,-9 33,-18 50,-25 56,-23 115,-36 176,-36l0 -25c-65,1 -127,13 -186,38l0 0c0,0 0,0 0,0 -17,11 -32,23 -47,36zm8 13l129 223c19,-33 55,-56 96,-56l0 -227c-61,0 -120,12 -175,36 -17,7 -34,15 -50,24zm130 225l32 55c20,-1 41,-2 63,-2l0 -109c-41,0 -76,22 -95,56zm33 57l62 107 0 -109c-21,0 -42,0 -62,2zm-391 109c0,-6 0,-12 1,-18 -11,4 -19,8 -26,11 0,2 0,4 0,7l25 0zm2 0l136 0c-2,-4 -4,-8 -6,-12 -6,-15 -11,-31 -15,-46 -48,14 -87,29 -114,40 -1,6 -1,12 -1,18zm905 0l25 0c0,-3 0,-5 0,-7 -7,-3 -15,-7 -26,-11 1,6 1,12 1,18zm-453 517c-70,0 -138,-14 -202,-41 -61,-26 -116,-63 -164,-110 -47,-48 -84,-103 -110,-164 -27,-64 -41,-132 -41,-201 0,-70 14,-138 41,-202 26,-61 63,-116 110,-164 48,-47 103,-84 164,-110 64,-27 132,-41 202,-41 69,0 137,14 201,41 61,26 116,63 164,110 47,48 84,103 110,164 27,64 41,132 41,202 0,69 -14,137 -41,201 -26,61 -63,116 -110,164 -48,47 -103,84 -164,110 -64,27 -132,41 -201,41z"/>
 </g>
</svg>
