<?xml version="1.0" encoding="UTF-8"?>
<!DOCTYPE svg PUBLIC "-//W3C//DTD SVG 1.1//EN" "http://www.w3.org/Graphics/SVG/1.1/DTD/svg11.dtd">
<!-- Creator: CorelDRAW X8 -->
<svg xmlns="http://www.w3.org/2000/svg" xml:space="preserve" width="1818px" height="720px" version="1.1" style="shape-rendering:geometricPrecision; text-rendering:geometricPrecision; image-rendering:optimizeQuality; fill-rule:evenodd; clip-rule:evenodd"
viewBox="0 0 1818 720"
 xmlns:xlink="http://www.w3.org/1999/xlink">
 <defs>
  <style type="text/css">
   <![CDATA[
    .fil0 {fill:#281E43}
    .fil1 {fill:#281E43}
    .fil4 {fill:#4E4764}
    .fil3 {fill:#625B76}
    .fil2 {fill:#726B84}
   ]]>
  </style>
 </defs>
 <g id="Capa_x0020_1">
  <metadata id="CorelCorpID_0Corel-Layer"/>
  <g id="_2119494975888">
   <path class="fil0" d="M847 720l-11 0 -11 0 0 -127c0,-35 -28,-64 -63,-64 -35,0 -64,29 -64,64l0 127 -11 0 -11 0 0 -127c0,-35 -28,-64 -63,-64 -35,0 -64,29 -64,64l0 127 -11 0 -11 0 0 -127c0,-35 -28,-64 -63,-64 -35,0 -64,28 -64,64l0 127 -11 0 -11 0 0 -127c0,-35 -28,-64 -63,-64 -35,0 -64,29 -64,64l0 127 -11 0 -11 0 0 -127c0,-35 -28,-64 -63,-64 -35,0 -64,29 -64,64l0 127 -11 0 -11 0 0 -127c0,-35 -28,-64 -63,-64l0 -18 -17 0 0 -17 389 0 149 0 309 0 81 0 890 0 0 226 -971 0z"/>
   <polygon class="fil1" points="1818,0 1244,0 1115,204 1098,197 965,387 1818,387 "/>
   <g>
    <polygon class="fil2" points="1818,494 965,494 965,387 1818,387 "/>
    <polygon class="fil3" points="1818,387 965,387 1179,494 1818,494 "/>
    <polygon class="fil4" points="1818,387 1231,387 1466,494 1818,494 "/>
   </g>
  </g>
 </g>
</svg>
