<?xml version="1.0" encoding="UTF-8"?>
<!DOCTYPE svg PUBLIC "-//W3C//DTD SVG 1.1//EN" "http://www.w3.org/Graphics/SVG/1.1/DTD/svg11.dtd">
<!-- Creator: CorelDRAW X8 -->
<svg xmlns="http://www.w3.org/2000/svg" xml:space="preserve" width="2716px" height="226px" version="1.1" style="shape-rendering:geometricPrecision; text-rendering:geometricPrecision; image-rendering:optimizeQuality; fill-rule:evenodd; clip-rule:evenodd"
viewBox="0 0 2716 226"
 xmlns:xlink="http://www.w3.org/1999/xlink">
 <defs>
  <style type="text/css">
   <![CDATA[
    .fil0 {fill:#281E43}
   ]]>
  </style>
 </defs>
 <g id="Capa_x0020_1">
  <metadata id="CorelCorpID_0Corel-Layer"/>
  <path class="fil0" d="M1656 35c35,0 64,29 64,64l0 127 10 0 11 0 0 -127c0,-35 29,-64 64,-64 35,0 64,29 64,64l0 127 10 0 11 0 0 -127c0,-35 29,-64 64,-64 35,0 64,29 64,64l0 127 10 0 11 0 0 -127c0,-35 29,-64 64,-64 35,0 64,29 64,64l0 127 10 0 11 0 0 -127c0,-35 29,-64 64,-64 35,0 64,29 64,64l0 127 10 0 11 0 0 -127c0,-35 29,-64 64,-64 35,0 64,29 64,64l0 127 10 0 11 0 0 -127c0,-35 29,-64 64,-64 35,0 64,29 64,64l0 127 10 0 11 0 0 -127c0,-35 29,-64 64,-64l0 -18 17 0 0 -17 -539 0 -447 0 -91 0 -355 0 -92 0 -295 0 -118 0 -91 0 -149 0 -215 0 -324 0 0 17 17 0 0 18c35,0 64,29 64,64l0 127 11 0 10 0 0 -127c0,-35 29,-64 64,-64 35,0 64,29 64,64l0 127 11 0 10 0 0 -127c0,-35 29,-64 64,-64 3,0 6,0 9,1 5,1 10,2 15,4l0 0c1,0 1,0 1,1l0 0c4,1 8,3 11,6l1 0c0,0 0,0 1,0l0 1c0,0 0,0 1,0l0 0c0,1 0,1 1,1l0 0c0,1 1,1 1,1l0 0c0,0 1,1 1,1l0 0c2,2 3,3 5,5l0 0c0,0 0,0 1,1l0 0c0,0 0,1 1,1 0,0 0,0 0,0 0,0 0,1 1,1 0,0 0,0 0,0 0,0 0,1 0,1l1 0c0,1 0,1 0,1 0,0 0,0 1,1 0,0 0,0 0,0 0,0 0,1 0,1 1,0 1,0 1,0 0,1 0,1 0,1 0,0 1,0 1,1 0,0 0,0 0,0 1,1 1,2 2,3 0,0 0,0 0,0 0,1 0,1 0,1 0,0 1,1 1,1 0,0 0,0 0,0 0,1 0,1 0,1 0,0 1,1 1,1 0,0 0,0 0,0 0,1 0,1 0,1 0,0 0,1 1,1 0,0 0,0 0,0 0,1 0,1 0,1 0,0 0,1 0,1 0,0 1,0 1,1 0,0 0,0 0,0 0,0 0,1 0,1 0,0 0,0 0,1 0,0 1,0 1,0 0,1 0,1 0,1 0,0 0,1 0,1 0,0 0,0 0,0 0,1 1,1 1,2 0,0 0,0 0,0 0,1 0,1 0,1 0,1 0,1 0,1 0,0 0,1 0,1 0,0 0,0 0,0 1,1 1,1 1,1 0,1 0,1 0,1 0,0 0,1 0,1 0,0 0,0 0,1 0,0 0,0 0,0 0,1 0,1 0,1 0,0 0,1 0,1 0,0 0,0 0,1 0,0 0,0 0,1 0,0 0,0 1,0 0,0 0,1 0,1 0,0 0,1 0,1 0,0 0,0 0,1 0,0 0,0 0,0 0,1 0,1 0,2l0 127 11 0 10 0 0 -127c0,-1 0,-1 0,-2 0,0 0,-1 1,-1 0,-1 0,-1 0,-2 0,-1 0,-1 0,-2 0,0 0,-1 0,-1 0,-1 0,-1 0,-2 0,0 0,-1 0,-1 1,-1 1,-1 1,-2 0,0 0,-1 0,-2 0,0 0,-1 0,-1 1,-1 1,-1 1,-2 0,0 0,-1 0,-1 0,-1 1,-1 1,-2 0,0 0,-1 0,-1 0,-1 1,-1 1,-1 0,-1 0,-1 0,-2 1,0 1,-1 1,-1 0,-1 0,-1 1,-2 0,0 0,-1 0,-1 1,-1 1,-1 1,-1 0,-1 1,-1 1,-2 0,0 0,-1 1,-1 0,-1 0,-1 0,-1l0 0c1,-1 1,-1 1,-2 1,0 1,-1 1,-1 0,0 1,-1 1,-1 0,-1 1,-1 1,-1 0,-1 1,-1 1,-2 0,0 1,0 1,-1 0,0 1,-1 1,-1l0 0c0,0 1,-1 1,-1 0,0 1,-1 1,-1 0,0 1,-1 1,-1 1,-1 1,-1 1,-1l0 0c1,-1 1,-1 1,-1l0 0c1,-1 1,-1 2,-1 0,-1 0,-1 1,-1l0 0c0,-1 1,-1 1,-1 0,0 1,-1 1,-1l0 0c1,0 1,-1 1,-1l0 0c1,0 1,0 2,-1 0,0 1,0 1,-1l0 0c0,0 1,0 1,0 1,-1 1,-1 2,-1l0 0c0,0 1,-1 1,-1 1,0 1,0 1,0 1,-1 1,-1 2,-1l0 0c0,0 1,-1 1,-1l0 0c1,0 1,0 2,0 0,-1 1,-1 1,-1l0 0c1,0 1,0 2,0 0,-1 1,-1 1,-1 1,0 1,0 2,0l0 0c0,0 1,-1 1,-1l0 0c1,0 1,0 2,0l0 0c0,0 1,0 1,0 1,-1 1,-1 2,-1 0,0 1,0 1,0 1,0 1,0 2,0 0,0 1,0 2,0l0 0c0,0 1,-1 1,-1 1,0 1,0 2,0l0 0c0,0 1,0 1,0 1,0 1,0 2,0 1,0 1,0 2,0 0,0 1,0 1,0l0 0c1,0 1,0 2,0 0,0 1,1 2,1l0 0c0,0 1,0 1,0 1,0 1,0 2,0 0,0 1,0 1,0 1,0 1,0 2,1 0,0 1,0 1,0l0 0c1,0 1,0 2,0l0 0c0,0 1,1 1,1l0 0c1,0 1,0 2,0 0,0 1,0 1,1 1,0 1,0 2,0l0 0c0,0 1,0 1,1 1,0 1,0 2,0l0 0c0,0 1,1 1,1l0 0c1,0 1,0 2,1 0,0 1,0 1,0 0,0 1,1 1,1l0 0c1,0 1,0 2,1 0,0 1,0 1,0l0 0c0,1 1,1 1,1 1,1 1,1 2,1l0 0c0,0 0,1 1,1l0 0c0,0 1,1 1,1 1,0 1,0 1,1l0 0c1,0 1,0 2,1 0,0 0,0 1,1l0 0c0,0 0,0 1,1l0 0c0,0 1,0 1,1 0,0 1,1 1,1 0,0 1,1 1,1 0,0 1,1 1,1l0 0c0,0 1,1 1,1 0,1 1,1 1,1 0,1 1,1 1,2 0,0 1,0 1,1 0,0 1,1 1,1 0,0 1,1 1,1 0,1 0,1 1,2l0 0c0,0 0,0 0,1 1,0 1,1 1,1 0,1 1,1 1,2 0,0 0,0 1,1 0,0 0,1 0,1 1,1 1,1 1,2 0,0 0,1 1,1 0,1 0,1 0,2 0,0 1,0 1,1 0,0 0,1 0,1 0,1 1,1 1,2 0,0 0,1 0,1 0,1 1,1 1,2 0,0 0,1 0,1 0,1 0,2 0,2 0,1 1,1 1,2 0,0 0,1 0,1 0,1 0,1 0,2 0,0 0,1 0,1 0,1 0,1 0,2 1,1 1,1 1,2 0,0 0,1 0,1 0,1 0,1 0,2l0 127 11 0 10 0 0 -127c0,-35 29,-64 64,-64 35,0 64,29 64,64l0 127 11 0 10 0 0 -127c0,-35 29,-64 64,-64 35,0 64,29 64,64l0 127 11 0 10 0 0 -127c0,-31 22,-56 50,-62 5,-1 9,-2 14,-2 35,0 64,29 64,64l0 127 11 0 10 0 0 -127c0,-35 29,-64 64,-64 35,0 64,29 64,64l0 127 11 0 10 0 0 -127c0,-35 29,-64 64,-64 35,0 64,29 64,64l0 127 11 0 10 0 0 -127c0,-35 29,-64 64,-64 35,0 64,29 64,64l0 127 10 0 11 0 0 -127c0,-35 29,-64 64,-64 35,0 64,29 64,64l0 127 10 0 11 0 0 -127c0,-35 29,-64 64,-64z"/>
 </g>
</svg>
