<?xml version="1.0" encoding="UTF-8"?>
<!DOCTYPE svg PUBLIC "-//W3C//DTD SVG 1.1//EN" "http://www.w3.org/Graphics/SVG/1.1/DTD/svg11.dtd">
<!-- Creator: CorelDRAW X8 -->
<svg xmlns="http://www.w3.org/2000/svg" xml:space="preserve" width="3840px" height="720px" version="1.1" style="shape-rendering:geometricPrecision; text-rendering:geometricPrecision; image-rendering:optimizeQuality; fill-rule:evenodd; clip-rule:evenodd"
viewBox="0 0 3840 720"
 xmlns:xlink="http://www.w3.org/1999/xlink">
 <defs>
  <style type="text/css">
   <![CDATA[
    .fil0 {fill:#281E43}
   ]]>
  </style>
 </defs>
 <g id="Capa_x0020_1">
  <metadata id="CorelCorpID_0Corel-Layer"/>
  <g id="_2558100366448">
   <path class="fil0" d="M0 494l205 0c4,0 7,3 7,7l0 32c0,4 3,7 7,7l170 0c4,0 7,4 7,7l0 173 -184 0 -60 0 -152 0 0 -226z"/>
   <path class="fil0" d="M3621 540l-138 0c-4,0 -7,4 -7,7l0 173 152 0 60 0 152 0 0 -226 -205 0c-4,0 -7,3 -7,7l0 32c0,4 -3,7 -7,7z"/>
   <path class="fil0" d="M3283 516l-190 0c-4,0 -7,4 -7,7l0 197 204 0 0 -197c0,-3 -3,-7 -7,-7z"/>
   <path class="fil0" d="M2689 516l-61 0 -68 0 -1409 0c-4,0 -7,4 -7,7l0 197 1416 0 68 0 68 0 0 -197c0,-3 -3,-7 -7,-7z"/>
   <path class="fil0" d="M539 0l81 0 86 0 81 0 28 0 1745 0 76 0 389 0 28 0 81 0 86 0 81 0 178 0 70 0 42 0 249 0 0 54 0 333 -95 0c-4,0 -7,-3 -7,-7l0 -167c0,-3 -3,-7 -7,-7l-175 0c-4,0 -7,-3 -7,-7l0 -72c0,-3 -3,-7 -7,-7l-56 0c-4,0 -7,-3 -7,-7l0 -52c0,-3 -3,-7 -7,-7l-164 0c-4,0 -7,4 -7,7l0 82c0,4 -3,7 -7,7l-67 0c-4,0 -7,4 -7,7l0 26c0,4 -3,7 -7,7l-181 0c-4,0 -7,-3 -7,-7l0 -66c0,-3 -3,-7 -7,-7l-382 0 -76 0 -1738 0c-4,0 -7,4 -7,7l0 66c0,4 -3,7 -7,7l-181 0c-4,0 -7,-3 -7,-7l0 -26c0,-3 -3,-7 -7,-7l-67 0c-4,0 -7,-3 -7,-7l0 -82c0,-3 -3,-7 -7,-7l-164 0c-4,0 -7,4 -7,7l0 52c0,4 -3,7 -7,7l-56 0c-4,0 -7,4 -7,7l0 72c0,4 -3,7 -7,7l-175 0c-4,0 -7,4 -7,7l0 167c0,4 -3,7 -7,7l-95 0 0 -333 0 -54 249 0 42 0 70 0 178 0z"/>
   <path class="fil0" d="M534 516l213 0c4,0 7,4 7,7l0 197 -227 0 0 -197c0,-3 3,-7 7,-7z"/>
  </g>
 </g>
</svg>
