<?xml version="1.0" encoding="UTF-8"?>
<!DOCTYPE svg PUBLIC "-//W3C//DTD SVG 1.1//EN" "http://www.w3.org/Graphics/SVG/1.1/DTD/svg11.dtd">
<!-- Creator: CorelDRAW X8 -->
<svg xmlns="http://www.w3.org/2000/svg" xml:space="preserve" width="3840px" height="720px" version="1.1" style="shape-rendering:geometricPrecision; text-rendering:geometricPrecision; image-rendering:optimizeQuality; fill-rule:evenodd; clip-rule:evenodd"
viewBox="0 0 3840 720"
 xmlns:xlink="http://www.w3.org/1999/xlink">
 <defs>
  <style type="text/css">
   <![CDATA[
    .fil1 {fill:white}
    .fil0 {fill:#258084;fill-opacity:0.800000}
   ]]>
  </style>
   <mask id="id0">
  <linearGradient id="id1" gradientUnits="userSpaceOnUse" x1="924.129" y1="572.96" x2="924.129" y2="590.71">
   <stop offset="0" style="stop-opacity:1; stop-color:white"/>
   <stop offset="1" style="stop-opacity:0; stop-color:white"/>
  </linearGradient>
    <rect style="fill:url(#id1)" x="754" y="576" width="390.567" height="25.3179"/>
   </mask>
   <mask id="id2">
  <linearGradient id="id3" gradientUnits="userSpaceOnUse" x1="453.317" y1="572.218" x2="453.318" y2="593.734">
   <stop offset="0" style="stop-opacity:1; stop-color:white"/>
   <stop offset="1" style="stop-opacity:0; stop-color:white"/>
  </linearGradient>
    <rect style="fill:url(#id3)" x="396" y="576" width="131.067" height="30.57"/>
   </mask>
   <mask id="id4">
  <linearGradient id="id5" gradientUnits="userSpaceOnUse" x1="3394.71" y1="572.218" x2="3394.71" y2="593.734">
   <stop offset="0" style="stop-opacity:1; stop-color:white"/>
   <stop offset="1" style="stop-opacity:0; stop-color:white"/>
  </linearGradient>
    <rect style="fill:url(#id5)" x="3289" y="576" width="186.566" height="30.57"/>
   </mask>
   <mask id="id6">
  <linearGradient id="id7" gradientUnits="userSpaceOnUse" x1="2915.87" y1="572.96" x2="2915.87" y2="590.71">
   <stop offset="0" style="stop-opacity:1; stop-color:white"/>
   <stop offset="1" style="stop-opacity:0; stop-color:white"/>
  </linearGradient>
    <rect style="fill:url(#id7)" x="2695" y="576" width="390.567" height="25.3179"/>
   </mask>
 </defs>
 <g id="Capa_x0020_1">
  <metadata id="CorelCorpID_0Corel-Layer"/>
  <polygon class="fil0" points="754,720 1144,720 1144,576 754,576 "/>
  <polygon class="fil1" style="mask:url(#id0)" points="754,576 1144,576 1144,601 754,601 "/>
  <polygon class="fil0" points="3086,720 2696,720 2696,576 3086,576 "/>
  <polygon class="fil0" points="396,720 527,720 527,576 396,576 "/>
  <polygon class="fil0" points="3476,720 3290,720 3290,576 3476,576 "/>
  <polygon class="fil1" style="mask:url(#id2)" points="396,576 527,576 527,606 396,606 "/>
  <polygon class="fil1" style="mask:url(#id4)" points="3476,576 3290,576 3290,606 3476,606 "/>
  <polygon class="fil1" style="mask:url(#id6)" points="3086,576 2696,576 2696,601 3086,601 "/>
 </g>
</svg>
