<?xml version="1.0" encoding="UTF-8"?>
<!DOCTYPE svg PUBLIC "-//W3C//DTD SVG 1.1//EN" "http://www.w3.org/Graphics/SVG/1.1/DTD/svg11.dtd">
<!-- Creator: CorelDRAW X8 -->
<svg xmlns="http://www.w3.org/2000/svg" xml:space="preserve" width="737px" height="85px" version="1.1" style="shape-rendering:geometricPrecision; text-rendering:geometricPrecision; image-rendering:optimizeQuality; fill-rule:evenodd; clip-rule:evenodd"
viewBox="0 0 737 85"
 xmlns:xlink="http://www.w3.org/1999/xlink">
 <defs>
  <style type="text/css">
   <![CDATA[
    .fil0 {fill:white;fill-rule:nonzero}
   ]]>
  </style>
 </defs>
 <g id="Capa_x0020_1">
  <metadata id="CorelCorpID_0Corel-Layer"/>
  <path class="fil0" d="M33 84c-9,0 -16,-2 -21,-5 -7,-3 -11,-9 -11,-17 0,-5 1,-9 3,-12 2,-3 5,-6 8,-8 4,-2 8,-4 12,-5 4,-2 9,-3 14,-3 4,-1 9,-2 13,-3 6,0 11,-1 16,-2 0,-4 -2,-8 -4,-11 -1,-2 -4,-4 -8,-6 -4,-1 -9,-2 -15,-2 -6,0 -12,0 -18,1 -5,1 -10,3 -14,5l0 -10c4,-2 9,-3 15,-4 6,-1 12,-1 17,-1 9,0 16,1 21,3 6,2 10,6 12,11 3,4 4,11 4,20l0 48 -10 0 0 -6c-2,1 -5,2 -8,3 -4,1 -8,2 -12,3 -4,0 -9,1 -14,1zm0 -9c6,0 11,0 15,-1 5,-1 9,-2 12,-3 3,-1 5,-2 7,-3l0 -31c-4,1 -9,2 -15,3 -4,0 -8,1 -12,1 -4,1 -8,2 -11,3 -4,1 -7,2 -10,4 -3,1 -5,3 -7,5 -1,3 -2,5 -2,8 0,5 3,9 8,11 4,2 9,3 15,3zm95 9c-5,0 -11,-1 -15,-2 -5,-1 -9,-2 -12,-3 -3,-2 -6,-3 -8,-5l0 -11c2,2 5,4 9,5 3,2 7,4 12,5 5,1 10,2 15,2 8,0 15,-1 20,-4 5,-2 7,-5 7,-8 0,-2 0,-4 -2,-5 -1,-2 -3,-3 -6,-4 -2,-1 -5,-3 -8,-4 -3,-1 -6,-2 -10,-3 -4,-1 -8,-3 -13,-4 -4,-1 -8,-3 -11,-5 -4,-2 -6,-4 -8,-7 -3,-2 -4,-5 -4,-9 0,-4 2,-7 5,-10 3,-4 7,-6 13,-8 5,-2 11,-3 18,-3 6,0 10,0 14,1 4,1 8,2 11,3 3,2 5,3 8,5l0 10 -3 -2c-2,-1 -4,-2 -7,-3 -3,-1 -7,-3 -10,-4 -4,-1 -9,-1 -13,-1 -5,0 -10,0 -13,2 -4,1 -7,2 -9,4 -3,1 -4,3 -4,5 0,2 1,3 2,5 2,1 4,2 6,4 2,1 5,2 8,3 3,1 7,2 10,3 4,1 9,3 13,4 4,2 8,4 12,5 3,2 6,5 8,7 2,3 4,6 4,10 0,7 -4,12 -10,16 -7,4 -17,6 -29,6zm92 -1l-10 0 0 -72 -32 0 0 -9 75 0 0 9 -33 0 0 72zm158 -26c-6,0 -10,-1 -14,-2 -4,-3 -7,-7 -7,-12 0,-4 1,-7 3,-9 2,-2 5,-4 8,-5 3,-2 7,-3 11,-3 3,-1 7,-2 11,-2 3,-1 7,-1 10,-2 -1,-4 -3,-6 -6,-8 -3,-1 -7,-2 -12,-2 -4,0 -8,0 -11,1 -4,1 -7,3 -9,4l0 -10c3,-1 6,-1 10,-2 3,0 7,-1 10,-1 6,0 11,1 15,2 4,2 7,4 9,7 2,3 3,8 3,13l0 31 -9 0 0 -4c-7,3 -14,4 -22,4zm0 -6c4,0 7,-1 10,-1 3,-1 5,-1 7,-2 2,-1 4,-2 5,-2l0 -17c-3,1 -7,1 -10,1 -4,1 -8,1 -12,2 -3,1 -6,2 -8,4 -3,1 -4,4 -4,7 0,2 1,4 3,6 3,1 6,2 9,2zm9 33c-6,0 -12,-1 -17,-2 -6,-2 -11,-4 -16,-7 -6,-2 -11,-5 -15,-8 -7,-4 -12,-6 -15,-8 -4,-2 -8,-4 -11,-5 -3,-2 -6,-2 -9,-2l-25 0 0 31 -10 0 0 -81 42 0c6,0 10,1 15,3 4,2 8,5 10,9 3,3 4,8 4,13 0,5 -1,10 -4,13 -3,4 -6,7 -11,9 4,2 9,5 13,8 5,3 11,5 16,8 5,3 11,5 16,7 6,2 11,3 17,3 5,0 9,0 12,-1 4,-1 7,-1 9,-2 3,-1 5,-2 6,-2l2 -1 5 7 -3 1c-1,1 -3,2 -6,3 -3,1 -6,2 -11,3 -4,1 -9,1 -14,1zm-76 -41c4,0 7,-1 10,-2 2,-1 5,-3 6,-5 2,-2 3,-5 3,-9 0,-4 -1,-7 -3,-9 -1,-2 -4,-4 -6,-5 -3,-1 -6,-2 -10,-2l-32 0 0 32 32 0zm176 18c-10,0 -17,-3 -22,-8 -5,-6 -7,-13 -7,-22 0,-4 0,-8 1,-12 2,-3 3,-6 6,-9 2,-3 5,-5 9,-7 3,-1 8,-2 13,-2 5,0 9,1 13,2 4,2 7,4 9,7 2,3 4,6 5,9 1,4 2,8 2,12 0,4 -1,8 -2,12 -1,4 -3,7 -5,10 -2,2 -5,4 -9,6 -4,2 -8,2 -13,2zm0 -9c5,0 9,0 11,-2 3,-2 5,-5 7,-8 1,-3 2,-7 2,-11 0,-4 -1,-7 -2,-11 -2,-3 -4,-5 -7,-7 -2,-2 -6,-3 -11,-3 -5,0 -9,1 -12,3 -3,2 -5,4 -6,7 -1,4 -2,7 -2,11 0,4 1,8 2,11 1,3 3,6 6,8 3,2 7,2 12,2zm8 32l-2 0c-6,0 -10,-1 -14,-1 -6,-1 -10,-1 -13,-1 -3,0 -7,0 -13,1 -6,0 -12,1 -17,1l0 -82 10 0 0 72 4 0c7,-1 12,-1 16,-1 3,0 5,0 8,0 2,0 5,0 7,1 4,0 9,1 14,1 6,0 11,-1 17,-2l3 0 0 9 -3 0c-5,1 -10,2 -17,2zm80 0c-8,0 -14,-1 -20,-3 -6,-3 -11,-6 -15,-9 -4,-4 -7,-9 -9,-14 -2,-5 -3,-10 -3,-16 0,-5 1,-11 3,-16 2,-5 5,-9 9,-13 4,-4 9,-7 15,-9 6,-2 12,-3 20,-3 7,0 14,1 20,3 5,2 10,5 14,9 4,4 7,8 9,13 2,5 3,11 3,16 0,6 -1,11 -3,16 -2,5 -5,10 -9,14 -4,3 -9,6 -14,9 -6,2 -13,3 -20,3zm0 -9c8,0 14,-2 20,-5 5,-2 9,-6 12,-11 3,-5 4,-11 4,-17 0,-6 -1,-11 -4,-16 -3,-5 -7,-9 -12,-12 -6,-3 -12,-4 -20,-4 -8,0 -15,1 -20,4 -6,3 -10,7 -12,12 -3,5 -5,10 -5,16 0,6 2,12 5,17 2,5 6,9 12,11 5,3 12,5 20,5zm0 -25l-8 -8 8 -8 8 8 -8 8zm161 33l-10 0 -8 -64 -29 64 -9 0 -29 -64 -8 64 -10 0 10 -81 10 0 31 69 32 -69 10 0 10 81z"/>
 </g>
</svg>
